<?xml version="1.0" encoding="iso-8859-1"?>
<!-- Generator: Adobe Illustrator 29.0.0, SVG Export Plug-In . SVG Version: 9.03 Build 54978)  -->
<svg version="1.1" id="Layer_1" xmlns="http://www.w3.org/2000/svg" xmlns:xlink="http://www.w3.org/1999/xlink" x="0px" y="0px"
	 viewBox="0 0 144 48" style="enable-background:new 0 0 144 48;" xml:space="preserve">
<path style="fill-rule:evenodd;clip-rule:evenodd;fill:#94A3B8;" d="M58.7,23c0.5,0,1-0.1,1.4-0.2c0.6-0.2,1.2-0.3,1.7-0.6
	c0,0,0.2,0,0.2-0.1c0.1,0,0.2,0,0.3-0.1l0,0c0,0,0.1-0.1,0.2-0.1c0.2-0.2,0.4-0.3,0.6-0.5l0,0l0,0l0,0c0.7-0.6,1.3-1.4,1.7-2.3
	c0.5-1.2,0.8-2.6,0.3-3.9c-0.1-0.4-0.3-0.7-0.5-1.1l0,0V14l0,0c-0.3-0.4-0.7-0.9-1.1-1.2c-0.2-0.1-0.3-0.2-0.4-0.3
	c-0.2,0-0.2-0.2-0.4-0.2c0,0-0.2,0-0.2-0.1c-0.8-0.4-1.7-0.6-2.6-0.8c-0.4,0-0.9,0-1.3,0c-1.4,0-2.8,0.5-3.9,1.2l0,0l0,0
	c-0.7,0.5-1.2,1-1.7,1.6c-0.6,0.9-1.1,2.1-1.2,3.2l0,0c-0.2-0.4-0.6-0.7-0.9-0.9c0,0,0,0-0.1,0l0,0c-0.4-0.3-0.9-0.5-1.4-0.7
	c-0.7-0.2-1.4-0.4-2.2-0.5h-0.1c0,0,0,0,0.2,0c0.6-0.1,1.2-0.3,1.8-0.5c1.1-0.5,1.9-1.1,2.3-2.2c0-0.2,0-0.3,0-0.5s0-0.4,0-0.6
	c-0.1-0.9-0.7-1.4-1.4-1.8c-1.8-0.7-3.8-0.9-5.8-0.9c-0.7,0-1.3,0-1.9,0l0,0c-1.6,0-3.3,0-4.9,0c0,0,0,0-0.1,0v0.1l0,0
	c0.2,0.3,0.5,0.3,0.7,0.4c0.1,0.1,0.2,0.2,0.3,0.3c0,2.7-0.5,5.4-0.8,8c-0.2,1.2-0.3,2.5-0.7,3.5c-0.3,0.5-0.6,1-1,1.4l0,0
	c0,0.1,0.1,0.2,0.1,0.2c2.8,0,5.5,0.2,8.3,0.1c0.7,0,1.4,0,2.2-0.2c0.6-0.1,1.2-0.2,1.7-0.4c0.1,0,0.1,0,0.2,0c0.1,0,0.1,0,0.2,0
	c0.2,0,0.4-0.1,0.5-0.2c0,0,0.2,0,0.2-0.1c0.4-0.2,0.7-0.4,1.1-0.6c0.5-0.4,0.9-0.7,1.3-1.2c0.2-0.3,0.3-0.6,0.4-1l0,0
	c0.1,0.1,0.2,0.4,0.2,0.5s0,0.1,0,0.2c0.2,0.4,0.4,0.8,0.6,1.1c0.3,0.5,0.8,0.9,1.3,1.2l0,0l0,0l0,0c1.3,0.7,2.8,1,4.3,0.9l0,0
	L58.7,23z M92.9,32.4c0,0,0,0-0.1,0c-0.9,0-2,0.2-2.9,0.5c-1,0.4-1.8,0.9-2.4,1.8c-0.3,0.4-0.5,0.8-0.6,1.3l0,0l0,0
	c-0.3,0.2-0.6,0.4-0.8,0.7l0,0l0,0c-0.3,0.3-0.7,0.6-1.1,0.8l0,0c-0.1,0-0.2,0.1-0.3,0.2c0,0-0.1,0-0.2,0.1c-1,0.4-2.2,0.8-3.3,0.6
	c0,0-0.1,0-0.1-0.1l0,0c0-0.2,0-0.3,0-0.4c0.5-0.7,1.1-1.4,1.7-2.1c2-2.5,4.2-5,6.1-7.5c0,0,0,0,0-0.1h-0.2c-2.4,0-4.9,0-7.4-0.1
	c-0.6,0-1.3,0-1.9,0c0,0,0,0-0.1,0c-0.3,0.3-0.5,0.6-0.8,0.9c-0.4,0.6-0.9,1.1-1.4,1.8h0.2c0.2-0.1,0.4-0.2,0.6-0.3
	c0.3-0.1,0.5-0.3,0.8-0.4c0.3-0.2,0.6-0.3,0.8-0.4c1.1-0.5,2.4-1.1,3.6-0.8l0,0l0,0l0,0c-0.7,1.7-2.3,2.9-3.3,4.5
	c-1.5,1.9-3.2,3.7-4.5,5.7c0,0,0,0.1,0,0.2h0.2c3.1,0,6.2,0.1,9.3,0.1c0.4,0,0.8,0,1.2,0c0.4-0.7,0.8-1.5,1.1-2.2h0.1
	c0,0.4,0.2,0.8,0.4,1.1c0.4,0.5,0.9,0.8,1.5,1c1.3,0.4,2.8,0.5,4.1,0c0.2,0,0.5-0.2,0.7-0.3c0.2-0.2,0.4-0.3,0.6-0.5l0,0
	c0.2,0.3,0.2,0.8,0.5,1.1l0,0c0.9,0,1.8,0,2.8,0H99c-1.2-2.3,0-4.8,0.2-7.3v-1.1c0-0.4,0-0.8-0.2-1.2c-0.3-0.9-1.1-1.4-2-1.7
	c0,0-0.1,0-0.2,0C96,28,95.2,28,94.5,28l0,0c-0.5,0-0.9,0-1.4,0c-0.8,0-1.5,0.1-2.3,0.4c-0.3,0-0.6,0.2-0.9,0.3
	c-0.2,0-0.5,0.2-0.7,0.2c-0.1,0.1-0.3,0.2-0.4,0.2l0,0c-0.1,0.9,0.2,1.6,0.3,2.4l0,0c0.9-1,1.7-2.1,2.9-2.7c0,0,0,0,0.2,0
	c0.3,0,0.6-0.2,1-0.2s0.8,0,1.2,0.3c0.2,0.2,0.4,0.3,0.5,0.5v0.1c0.3,0.9,0.2,1.9,0.2,2.7c0,0.1-0.2,0.2-0.3,0.3c-0.5,0-1.1,0-1.7,0
	l0,0L92.9,32.4z M92.9,38.6c-0.3,0.1-0.6,0.1-0.9,0c0,0-0.2-0.2-0.3-0.3c-0.4-0.6-0.5-1.5-0.3-2.2c0.1-0.7,0.3-1.4,0.7-1.9
	c0.2-0.3,0.5-0.6,0.9-0.8c0.4-0.3,0.9-0.4,1.5-0.4c0,0,0.1,0,0.2,0c0,1.7-0.2,3.8-1.2,5.2l0,0l0,0l0,0c0,0-0.2,0-0.2,0.1l0,0
	L92.9,38.6z M53,25.2c-0.8,0-1.6,0-2.4,0l0,0c-1.4,0-2.9,0.1-4.4,0.2h-0.1v0.2c0.2,0.2,0.5,0.3,0.7,0.4c0,0,0,0.1,0.1,0.2
	c0,3.8-0.6,7.7-1.4,11.4c-0.3,0.6-0.7,1.1-1.2,1.5v0.2c0.4,0,0.8,0,1.3,0c1.8,0,3.7,0.1,5.5,0c0,0,0,0,0-0.1V39c-0.1,0-0.1,0-0.2,0
	c0,0-0.2,0-0.2-0.1c-0.1-0.1-0.2-0.2-0.3-0.4c-0.2-1.8,0-3.7,0.5-5.4H51c0.7-0.1,1.3-0.1,2-0.1c0.5,0,1,0,1.5,0
	c0.8,0,1.7-0.2,2.5-0.5l0,0c0,0,0,0,0.1,0c0,0,0.1,0,0.2,0c0.3-0.2,0.6-0.3,0.9-0.5l0,0l0,0l0,0l0,0c0.8-0.5,1.3-1.4,1.4-2.5l0,0
	c0.2,0,0.4,0,0.5,0.2c0,0,0,0.1,0,0.2c-0.2,2.7-0.4,5.6-1.1,8.4c-0.2,0.5-0.4,0.8-0.8,1l0,0l0,0l0,0l0,0h-0.1v0.2l0,0
	c4.6,0.2,9.2,0.1,13.9,0.2c0.6,0,1.3,0,1.9,0c0.8-0.8,1.5-1.8,2.2-2.5l0,0l0,0c-0.9,0.4-1.7,0.9-2.7,1.2c-0.1,0-0.2,0-0.4,0.1h-0.2
	c-0.8,0.2-1.8,0.6-2.5,0.2c0,0-0.1,0-0.1-0.1l0,0c0-0.2,0-0.2,0-0.2c1.1-1.4,2.3-2.9,3.5-4.4c1.4-1.8,3-3.6,4.4-5.4l0,0
	c0-0.1,0-0.1-0.1-0.1c-3.3,0-6.4,0-9.8,0h-0.7c-0.3,0.6-0.6,1.1-0.9,1.7c-0.2,0.5-0.5,1.1-0.6,1.7l0,0c0,0,0,0,0.2,0
	c0.3-0.3,0.5-0.4,0.8-0.6l0,0l0,0h0.1l0,0c0,0,0-0.1,0.2-0.1l0,0l0,0l0,0l0,0l0,0l0,0l0,0l0,0l0,0c0.1,0,0.2-0.2,0.3-0.2
	c0.2-0.1,0.4-0.2,0.6-0.3l0,0c0.1-0.1,0.2-0.2,0.3-0.2l0,0c0.5-0.3,0.9-0.5,1.4-0.7c0.6-0.1,1.2-0.2,1.8,0c0,0,0,0.1,0,0.2
	c0,0-0.1,0.2-0.2,0.3c-0.9,1.1-1.8,2.2-2.7,3.2l0,0c-0.3,0.3-0.5,0.7-0.8,1.1c-1.4,1.7-2.9,3.5-4.3,5.2h-0.1c-0.1,0-0.2-0.1-0.3-0.2
	c-1.4-2.8,0.4-6.4,0.3-9.5c0-0.3,0-0.6,0-0.8h-0.1c-1.5,0-3.1,0-4.6,0.2c-0.1-0.4-0.3-0.9-0.5-1.2c-0.4-0.7-1.2-1.2-2-1.4
	c-1.4-0.4-2.9-0.6-4.3-0.6l0,0L53,25.2z M53,31.9c-0.6,0.2-1.4,0.2-2,0c0-1.9,0.4-3.8,0.6-5.7c0,0,0,0,0-0.2l0,0c0.3,0,0.4,0,0.6,0
	h0.7c0.4,0,0.7,0.2,1,0.3l0,0l0,0c0.2,0.1,0.3,0.2,0.5,0.4l0,0c0,0.2,0,0.3,0.1,0.4c0.3,1.2,0.2,2.6-0.5,3.6
	c-0.2,0.3-0.5,0.6-0.8,0.9c-0.2,0-0.3,0.2-0.5,0.2l0,0L53,31.9z M63.6,23.9L63.6,23.9c0.1,0,0.2,0.1,0.3,0.1
	c0.3,0.1,0.6,0.3,0.8,0.6c0.3,0.5,0.4,1.1,0.2,1.7c0,0,0,0,0,0.2c-0.2,0.4-0.5,0.7-0.9,0.9c-0.7,0.4-1.7,0.4-2.4,0
	c-0.4-0.2-0.7-0.6-0.7-1.1s0-1.1,0.4-1.4c0.1-0.2,0.3-0.4,0.5-0.5l0,0l0.1-0.1c0.2-0.1,0.5-0.2,0.8-0.3l0,0h0.9l0,0L63.6,23.9z
	 M89,11.5c-1.6,0-3.1,0.6-4.2,1.5h-0.2c0,0.1,0,0.2-0.1,0.2c-0.5,0.5-1,1-1.4,1.6c-0.5,0.8-0.9,1.9-0.9,3l0,0c0,0.4,0,0.6,0,0.9
	c0.4,1.7,1.1,2.9,2.4,3.6c0.4,0.2,0.8,0.4,1.2,0.5c1,0.3,2,0.4,3.1,0.3c0.5,0,1.1-0.1,1.6-0.2c0.1,0,0.2,0,0.3,0
	c0.5-0.1,0.9-0.2,1.4-0.5c0,0,0.2,0,0.2-0.1c1.2-0.6,2.1-1.6,2.7-2.8c0.6-1.4,0.9-3,0.3-4.4c-0.3-1-1.1-1.7-1.9-2.3
	c-0.5-0.4-1.2-0.6-1.8-0.8c-0.5-0.2-1-0.2-1.5-0.3l0,0c-0.4,0-0.8,0-1.2,0l0,0V11.5z M89,22.4c-0.1,0-0.2,0-0.3,0
	c-0.3,0-0.5,0-0.8-0.1c0,0,0,0-0.2,0l0,0c0,0,0-0.1-0.1-0.1c-0.7-0.6-0.8-1.8-0.8-2.8c0.2-2.4,0.2-5.1,1.8-6.9
	c0.1-0.1,0.3-0.2,0.5-0.3c0.2,0,0.5,0,0.8,0l0,0h0.2c0.1,0,0.2,0,0.4,0.1l0,0c0,0.2,0.2,0.2,0.3,0.3l0,0c0,0.2,0.1,0.4,0.2,0.6
	c0.4,2.3,0.3,4.8-0.5,7.2c-0.2,0.3-0.3,0.7-0.4,1c-0.3,0.5-0.7,0.8-1.2,1l0,0L89,22.4z M104.3,11.3c0.7,0,1.5,0.2,2.1,0.5
	c0.9,0.5,1.4,1.5,1.4,2.6c0.4,2.6-1,5.5-0.1,7.9c0,0,0.1,0.1,0.3,0.2c0,0,0,0,0.1,0.1v0.1c-0.7,0-1.5,0-2.2,0c-1.3,0-2.5,0-3.7,0
	l0,0c0-0.1,0-0.2,0-0.2c1.4-1.3,1-3.7,1.5-5.5c0-1.5,0.7-3.3-0.3-4.5c-0.3-0.2-0.7-0.3-1-0.2c-0.1,0-0.2,0-0.4,0.1
	c0,0-0.1,0-0.2,0.1c-2,2.5-1.6,6.1-2,9.2c0,0,0,0.1,0,0.2c0.1,0.2,0.3,0.4,0.5,0.7c0,0,0,0,0,0.1l0,0c-1.7,0.2-3.6,0.1-5.3,0.1h-0.6
	v-0.1c0,0,0-0.1,0-0.2c0.1-0.2,0.3-0.3,0.4-0.4l0,0c0,0,0.1-0.1,0.2-0.2l0,0l0,0c1.1-2.6,1.2-6,1.2-8.9c0-0.1,0-0.2-0.1-0.3
	c0-0.2-0.2-0.2-0.4-0.4l0,0c1.4-0.3,2.8-0.5,4.2-0.7c0.2,0,0.3,0,0.4,0l0,0c0.2,0.4,0,0.8,0.1,1.1l0,0c0.3-0.1,0.5-0.5,0.8-0.7h0.1
	v-0.1c0.3-0.1,0.5-0.2,0.8-0.3c0.5-0.2,1.1-0.2,1.7-0.2l0,0l0,0L104.3,11.3z M82.5,8.9L82.5,8.9V9c0,0.9-0.4,1.7-0.3,2.6
	c0,0,0,0.1,0,0.2c0.4,0.1,0.9,0,1.4,0.2l0,0c0,0,0,0,0,0.2l0,0c0,0.2,0,0.2-0.1,0.3c-0.3,0.2-0.8,0-1.3,0.1c0,0-0.1,0-0.3,0.1
	c0,0,0,0-0.1,0.1c0,3-1,6.2-0.4,9.1c0,0.2,0.2,0.3,0.3,0.4c0,0,0,0,0,0.1s0,0.1,0,0.2c-1.4,0-2.7,0-4.2,0c-0.4-0.2-0.6-0.5-0.8-0.9
	c-0.2-3,0.5-5.9,0.9-8.9l0,0c0,0,0-0.1-0.1-0.2c-0.2-0.1-0.4,0-0.6,0c-0.3,0-0.5,0-0.8,0l0,0c-0.2,0.8-0.4,1.6-0.8,2.2
	c0,0,0,0-0.1,0H75c0-0.3-0.2-0.5-0.2-0.7c-0.3-0.8-0.7-1.4-1.3-1.9c-1-0.5-2.3-0.7-3.2-0.1c-0.3,0.2-0.6,0.5-0.7,0.9
	c0,0.4,0,0.8,0.3,1.1c0.1,0.2,0.2,0.2,0.4,0.3c0.6,0.3,1.2,0.5,1.8,0.7c0.5,0,0.9,0.3,1.4,0.4l0,0c0.3,0,0.5,0.3,0.8,0.4
	c0.9,0.4,1.6,1.1,1.9,1.9c0.2,0.5,0.2,1.1,0,1.6c0,0.3-0.2,0.6-0.4,0.9c0,0.1-0.1,0.2-0.2,0.3c0,0.1-0.2,0.3-0.3,0.4
	c-0.3,0.2-0.6,0.5-0.8,0.7l0,0c-0.2,0.2-0.4,0.3-0.7,0.4c-0.2,0.1-0.4,0.1-0.5,0.3l0,0c0,0,0,0-0.2,0s-0.1,0-0.2,0
	c-2.3,0.7-4.7,0.5-6.9-0.2c-0.2,0-0.3-0.1-0.5-0.2c-0.4-0.2-0.7-0.3-1-0.5c0,0,0,0,0-0.1c0-0.7,0.3-1.3,0.5-1.9
	c0-0.2,0.2-0.5,0.3-0.7l0,0c0,0,0.1-0.2,0.2-0.2l0,0c0,0,0,0.1,0,0.2c0.5,1.1,0.9,2.4,1.9,3c0.9,0.5,2,0.6,3,0.3c0,0,0,0,0.2,0
	c0.1,0,0.2,0,0.3-0.1c0.5-0.3,0.9-0.7,1-1.4c0-0.3-0.1-0.5-0.2-0.7c0,0,0,0-0.1-0.1c-0.2-0.1-0.4-0.2-0.7-0.4
	c-0.4-0.2-1-0.3-1.4-0.5c-0.3,0-0.6-0.1-0.8-0.2c-0.6-0.1-1.1-0.3-1.6-0.6h-0.2l0,0l0,0l0,0l0,0l0,0l0,0c-0.4-0.3-0.6-0.7-1-1.1
	c-0.5-0.5-0.5-1.4-0.2-2.1c0.4-1,0.9-1.7,1.8-2.3l0,0c0.3-0.2,0.6-0.4,1-0.6c1.9-0.6,3.9-0.5,5.9-0.2c0.7,0.1,1.4,0.2,2,0.5
	c0.8-0.3,1.8-0.2,2.8-0.5c0,0,0,0,0.2,0s0.4-0.1,0.5-0.3c0.2,0,0.4-0.2,0.7-0.3l0,0c0,0,0-0.1,0.2-0.1l0,0l0,0
	c0.5-0.4,0.9-0.8,1.3-1.4c0-0.1,0.1-0.2,0.2-0.3l0,0c0,0,0-0.1,0.1-0.1l0,0l0,0L82.5,8.9z M44.3,9.2c0.2,0,0.4,0,0.7,0
	c0.5,0.1,0.9,0.4,1.1,0.9c0.4,0.9,0.4,2.1-0.1,3.1c0,0,0,0.2-0.2,0.2c0,0,0,0,0,0.2c-0.2,0.2-0.3,0.3-0.5,0.5
	c-0.3,0.2-0.6,0.3-0.9,0.4c-0.6,0.1-1.2,0.1-1.8,0l0,0c0-1.7,0.3-3.4,0.5-5.1c0,0,0,0,0-0.1c0,0,0.2,0,0.3-0.1c0.2,0,0.5,0,0.8,0
	h0.2l0,0L44.3,9.2z M44.3,15.5c0.4,0,0.7,0.1,1,0.2c0.5,0.2,1,0.6,1.2,1.2c0.4,1.1,0.3,2.3-0.2,3.3c0,0,0,0,0,0.1
	c-0.3,0.4-0.6,0.8-1,1c-0.3,0.2-0.6,0.4-0.9,0.4c-0.5,0.1-1.1,0.1-1.7,0c0,0-0.2,0-0.3-0.2C42.2,21.4,42,21,42,20.7
	c0-1.4,0.2-2.7,0.3-4.1c0-0.5,0.1-0.9,0.3-1.2c0.4-0.1,0.8,0,1.3,0l0,0c0.2,0,0.3,0,0.5,0l0,0L44.3,15.5z M58.7,12
	c0.2,0,0.5,0,0.7,0l0,0c0.2,0,0.4,0,0.6,0.2l0,0c0,0,0,0.1,0.1,0.1c1,1.3,0.6,3.4,0.6,5.1c0,0.8-0.2,1.7-0.5,2.5c0,0,0,0.1,0,0.2
	c0,0.2,0,0.5-0.2,0.7c-0.2,0.5-0.4,0.8-0.7,1.1l0,0l0,0l0,0c-0.2,0.2-0.4,0.3-0.6,0.4c-0.2,0-0.5,0.1-0.8,0c-0.1,0-0.2,0-0.4-0.1
	c0,0,0,0-0.2,0l0,0c0,0,0-0.1-0.2-0.1l0,0c0,0,0,0-0.1,0l0,0c-0.5-0.7-0.6-1.7-0.6-2.6c0-2.2,0.2-4.5,1.2-6.3l0,0
	c0.2-0.3,0.4-0.6,0.7-0.8c0,0,0.2-0.1,0.3-0.2l0,0l0,0L58.7,12z"/>
</svg>
