<?xml version="1.0" encoding="iso-8859-1"?>
<!-- Generator: Adobe Illustrator 29.0.0, SVG Export Plug-In . SVG Version: 9.03 Build 54978)  -->
<svg version="1.1" id="Layer_1" xmlns="http://www.w3.org/2000/svg" xmlns:xlink="http://www.w3.org/1999/xlink" x="0px" y="0px"
	 viewBox="0 0 144 48" enable-background="new 0 0 144 48" xml:space="preserve">
<g>
	<path fill="#94A3B8" d="M96.835,15.563h9.499l-0.25,0.82c0,0-0.369,0.001-1.353,0.001c-1.059,0-1.47,0.908-1.57,1.27l-2.284,7.409
		c-0.324,1.053-0.634,2.39-0.8,3.31c-0.135,0.853-0.121,3.465,4.914,3.465c4.531,0,6.861-2.922,7.854-6.006
		c0.924-2.864,1.943-7.134,2.282-8.206c0.272-0.856-0.444-1.243-0.834-1.243h-1.842l0.234-0.821h8.098l-0.261,0.823
		c0,0-0.817-0.004-1.332-0.004c-0.78,0-1.392,0.55-1.545,1.049c-0.383,1.256-2.141,5.7-3.175,8.833
		c-1.191,3.607-4.758,6.662-10.462,6.662c-1.7,0-4.086-0.369-5.566-1.105c-1.437-0.758-2.213-2.302-2.145-3.91
		c0,0,0.085-0.895,0.341-1.738c0.256-0.843,2.53-8.168,2.665-8.656c0.113-0.412-0.177-1.136-0.883-1.136l-1.843,0.002L96.835,15.563
		L96.835,15.563z M23.468,31.616h1.241c0.7,0,1.535-0.219,1.871-1.15c0.306-0.849,5.078-12.806,5.078-12.806
		c-2.09-1.036-4.577-1.177-6.985-1.275l0.335-0.821h4.593c2.708,0,4.622,0.379,5.833,0.962c2.04,0.982,3.724,2.435,4.934,3.742
		c3.307,3.569,5.111,7.692,5.379,8.521l2.987-11.094c0.171-0.583-0.066-1.308-0.836-1.308h-1.846l0.253-0.821h8l-0.261,0.821h-1.189
		c-1.069,0-1.523,0.638-1.715,1.248c-0.223,0.712-5.074,14.806-5.074,14.806h-3.673c0,0-0.853-3.666-4.063-8.514
		c-2.565-3.874-5.419-5.608-5.419-5.608s-3.518,11.434-3.711,12.091c-0.194,0.657,0.249,1.208,0.849,1.208h1.863l-0.251,0.822
		h-8.447L23.468,31.616z M65.362,14.961c-5.848,0.109-12.307,2.652-13.924,8.959c-1.614,6.291,3.106,9.243,9.811,9.118
		c5.848-0.109,12.306-2.651,13.924-8.959C76.787,17.789,72.067,14.837,65.362,14.961z M70.837,24.47
		c-1.783,5.635-6.195,7.568-9.778,7.469c-3.402-0.093-7.249-2.199-5.286-8.41c1.783-5.635,6.195-7.566,9.778-7.469
		C68.952,16.154,72.801,18.261,70.837,24.47L70.837,24.47z"/>
	<path fill="#94A3B8" d="M75.801,30.436c-0.187,0.604-0.688,1.179-1.568,1.179c-0.395,0-1.551-0.001-1.551-0.001l-0.253,0.823
		h11.887c4.966,0,8.587-1.156,9.442-4.128c0.775-2.696-1.544-4.15-4.341-4.515c3.951-0.468,5.702-2.025,6.153-3.728
		c0.607-2.288-1.396-4.503-6.334-4.503l-11.936,0.001l-0.252,0.82h1.831c0.538,0,1.094,0.489,0.876,1.198
		C79.485,18.466,76.004,29.78,75.801,30.436L75.801,30.436z M83.958,16.554h3.013c3.603,0,5.1,1.418,4.587,3.396
		c-0.663,2.564-3.277,3.275-5.966,3.275c-1.378,0-3.664-0.006-3.664-0.006L83.958,16.554L83.958,16.554z M83.193,31.446h-2.604
		c-0.711,0-0.981-0.7-0.857-1.122c0.1-0.337,1.904-6.125,1.904-6.125s2.823,0.005,3.78,0.005c3.863,0,5.028,1.836,4.562,3.684
		C89.631,29.259,88.158,31.446,83.193,31.446L83.193,31.446z"/>
</g>
</svg>
