<?xml version="1.0" encoding="iso-8859-1"?>
<!-- Generator: Adobe Illustrator 29.0.0, SVG Export Plug-In . SVG Version: 9.03 Build 54978)  -->
<svg version="1.1" id="Layer_1" xmlns="http://www.w3.org/2000/svg" xmlns:xlink="http://www.w3.org/1999/xlink" x="0px" y="0px"
	 viewBox="0 0 144 48" style="enable-background:new 0 0 144 48;" xml:space="preserve">
<path style="fill-rule:evenodd;clip-rule:evenodd;fill:#94A3B8;" d="M97.504,38.78v-0.036l0.042,0.03L97.504,38.78z M99.335,38.098
	v-0.036l0.042,0.03L99.335,38.098z M96.821,37.272l0.04,0.142C96.722,37.379,96.692,37.349,96.821,37.272z M96.821,37.092
	c0.125,0.033,0.081,0.014,0.144,0.108C96.76,37.152,96.862,37.146,96.821,37.092z M96.821,36.805
	c0.153,0.013,0.256,0.035,0.108,0.144c-0.022-0.081,0.006-0.027-0.032-0.076c-0.004-0.005-0.012-0.014-0.017-0.019
	c-0.004-0.005-0.014-0.013-0.019-0.017L96.821,36.805z M100.412,37.2c0-0.159,0.072-0.559,0.179-0.682
	c0,0.151-0.015,0.145,0.036,0.251C100.401,36.92,100.615,37.051,100.412,37.2L100.412,37.2z M97.109,36.41
	c0,0.18-0.032,0.161-0.036,0.323C96.93,36.629,97.003,36.488,97.109,36.41z M97.109,36.41c0.036-0.054,0.036,0.082,0.036-0.108
	h-0.036V36.41z M105.761,36.554v-0.036c0.535,0,1.079-0.14,1.581-0.179c0.386-0.03,1.33-0.18,1.579-0.18v0.036
	c-0.105,0-1.079,0.265-1.472,0.287c-0.163,0.009-0.224,0.037-0.394,0.037c-0.203-0.001-0.233,0.03-0.394,0.037
	C106.373,36.567,106.053,36.554,105.761,36.554L105.761,36.554z M106.551,35.907l0.011,0.011
	C106.561,35.917,106.548,35.911,106.551,35.907z M106.91,35.872c0.037-0.037,0.13,0.052,0.041,0.019
	C106.951,35.89,106.85,35.932,106.91,35.872z M107.305,35.836l0.011,0.011C107.315,35.846,107.302,35.839,107.305,35.836z
	 M101.022,35.943c0.051-0.106,0.036-0.1,0.036-0.251c0.084,0.044,0.093,0.062,0.215,0.072
	C101.219,35.967,101.154,35.943,101.022,35.943L101.022,35.943z M107.664,35.764c0.037-0.037,0.13,0.052,0.041,0.019
	C107.705,35.783,107.604,35.824,107.664,35.764z M108.203,35.656h0.144v0.036h-0.144V35.656z M108.455,35.662
	c0.075-0.109,0.028-0.077,0.214-0.077v0.036L108.455,35.662z M108.885,35.513h0.108v0.036h-0.108V35.513z M101.202,35.477h0.144
	C101.267,35.583,101.28,35.583,101.202,35.477z M109.136,35.441l0.011,0.011C109.146,35.451,109.133,35.444,109.136,35.441z
	 M111.649,35.405v0.036l-0.042-0.03L111.649,35.405z M110.644,35.118v0.036l-0.042-0.03L110.644,35.118z M110.686,35.112
	l-0.042-0.03v0.036L110.686,35.112z M101.309,34.974h0.108v0.036h-0.108V34.974z M101.74,34.759v0.072h-0.431
	c0.051-0.096,0.011-0.121,0.174-0.108C101.587,34.73,101.572,34.759,101.74,34.759L101.74,34.759z M108.777,34.436l0.011,0.011
	C108.787,34.446,108.774,34.439,108.777,34.436z M107.664,31.204h0.036l-0.03,0.042L107.664,31.204z M100.268,31.204v0.036
	l-0.042-0.03L100.268,31.204z M107.664,31.204l-0.006-0.042l-0.03,0.042H107.664z M100.304,31.097
	c-0.037,0.04-0.036-0.063-0.036,0.108C100.305,31.165,100.304,31.267,100.304,31.097z M100.304,31.061l0.042,0.03l-0.042,0.006
	V31.061z M100.34,30.738c0.004-0.004,0.011,0.006,0.011,0.011L100.34,30.738z M100.448,30.414v0.144h-0.036
	c0-0.02-0.001-0.059,0.002-0.069C100.432,30.425,100.426,30.449,100.448,30.414L100.448,30.414z M107.126,30.271h0.036l-0.03,0.042
	L107.126,30.271z M107.12,30.229l-0.03,0.042h0.036L107.12,30.229z M100.448,30.414c0-0.253,0.072-0.394,0.072-0.646L100.448,30.414
	z M100.663,29.517c-0.095-0.054-0.094-0.087-0.047-0.334c0.031-0.162-0.037-0.127,0.118-0.169
	C100.721,29.183,100.663,29.328,100.663,29.517z M105.869,28.727c0.203,0.107,0.31,0.186,0.359,0.395
	C106.024,29.067,105.93,28.843,105.869,28.727z M105.331,28.619v0.036l-0.042-0.03L105.331,28.619z M105.372,28.613l-0.042-0.03
	v0.036L105.372,28.613z M106.444,28.368l0.495,0.475c-0.003-0.138-0.037-0.179-0.064-0.295c0.154,0.103,0.307,0.35,0.323,0.539
	c-0.089-0.06-0.148-0.098-0.18-0.215c-0.009,0.003-0.022,0.002-0.025,0.013C106.938,29.065,106.462,28.437,106.444,28.368
	L106.444,28.368z M106.437,28.326l-0.03,0.042h0.036L106.437,28.326z M104.253,28.117v-0.036l0.042,0.03L104.253,28.117z
	 M104.361,28.009c0.037-0.037,0.13,0.052,0.041,0.019C104.402,28.028,104.301,28.069,104.361,28.009z M104.253,28.117
	c-0.169,0.039-0.113,0.049-0.23,0.129c-0.188,0.128-0.51,0.261-0.739,0.266c0-0.138,0.014-0.184,0.069-0.254
	c0.045-0.057,0.093-0.084,0.156-0.131c0.192-0.143,0.891-0.607,0.996-0.764c-0.143,0.033-0.499,0.274-0.64,0.366
	c-0.043,0.028-0.272,0.181-0.308,0.19l-0.381,0.019c0.038-0.143,0.133-0.171,0.226-0.277c0.077-0.088,0.105-0.212,0.133-0.334
	c-0.096,0.064-0.192,0.115-0.287,0.179c-0.09,0.061-0.162,0.115-0.287,0.144c0.037-0.137,0.152-0.226,0.242-0.333
	c0.063-0.074,0.051-0.083,0.126-0.161c0.081-0.085,0.066-0.03,0.099-0.153c-0.161,0.043-0.396,0.19-0.487,0.374l-0.539,3.051
	c-0.067,0.331-0.135,0.602-0.197,0.916l-0.421,1.805c-0.113,0.447-0.187,0.544-0.187,0.89c0.277-0.006,0.059-0.099,0.403-0.045
	c0.508,0.08,1.686,0.119,2.257,0.186c0.251,0.029,0.695,0.003,0.967,0.003c0.952,0,2.582-0.122,3.375-0.503
	c-0.024-0.287-0.091-0.291-0.287-0.395c0-0.196-0.058-0.31,0-0.431c-0.136-0.036-0.104-0.069-0.215-0.144v-0.287
	c-0.17-0.014-0.131-0.041-0.203-0.192c-0.298-0.621-1.179-2.034-1.556-2.573c-0.084-0.12-0.62-0.726-0.647-0.825
	c-0.141,0.033-0.367,0.189-0.51,0.28c-0.243,0.154-0.363,0.284-0.495,0.223c0.033-0.091,0.106-0.141,0.251-0.179l-0.18-0.036
	l0.326-0.312c0-0.005-0.002-0.008-0.003-0.012c-0.071-0.031-0.358,0.172-0.452,0.23c-0.171,0.104-0.207,0.122-0.517,0.129
	c0.002-0.109,0.016-0.131,0.036-0.215h-0.287c0.075-0.142,0.044-0.153,0.186-0.245c0.119-0.078,0.13-0.068,0.209-0.186
	c-0.126,0.029-0.099,0.034-0.194,0.093l-0.488,0.266c0.032-0.12,0.066-0.121,0.152-0.207
	C103.863,28.526,104.205,28.296,104.253,28.117L104.253,28.117z M103.464,26.968l-0.036,0.036L103.464,26.968z M103.464,26.932
	l0.042,0.03l-0.042,0.006V26.932z M103.176,25.819l0.011,0.011C103.186,25.829,103.173,25.822,103.176,25.819z M99.191,25.352
	l0.011,0.011C99.201,25.362,99.188,25.356,99.191,25.352z M99.227,25.173h0.036l-0.03,0.042L99.227,25.173z M99.221,25.131
	l-0.03,0.042h0.036L99.221,25.131z M108.813,25.029c-0.031,0.117-0.09,0.156-0.179,0.215
	C108.665,25.127,108.724,25.089,108.813,25.029z M99.191,24.957l0.011,0.011C99.201,24.967,99.188,24.961,99.191,24.957z
	 M99.227,24.526h0.036v0.251h-0.036V24.526z M108.813,25.029c0.145-0.097,0.168-0.167,0.279-0.296
	c0.059-0.069,0.072-0.095,0.127-0.16c0.077-0.091,0.062-0.023,0.097-0.154C109.21,24.49,108.843,24.915,108.813,25.029
	L108.813,25.029z M109.316,24.419c0.033-0.125,0.014-0.081,0.108-0.144C109.39,24.4,109.41,24.356,109.316,24.419z M99.263,24.419
	v-0.18c0.044,0.033,0.058,0.012,0.061,0.072C99.326,24.342,99.305,24.4,99.263,24.419z M99.263,24.024V23.88h0.072
	C99.319,24.068,99.269,24.01,99.263,24.024z M99.299,23.485l0.011,0.011C99.309,23.495,99.295,23.489,99.299,23.485z M99.406,22.659
	c0-0.09,0.057-0.008,0.022,0C99.428,22.659,99.406,22.761,99.406,22.659z M99.442,22.228v0.215h-0.072
	C99.371,22.258,99.338,22.305,99.442,22.228z M100.771,28.907c-0.113-0.083-0.085,0.016-0.032-0.427
	c0.015-0.129,0.054-0.336,0.067-0.472l0.304-2.391c0.022-0.126,0.042-0.076-0.007-0.2c-0.003-0.008-0.01-0.016-0.013-0.024
	l-0.017-0.158c0.095,0.04,0.077,0.177,0.058-0.206c-0.009-0.178-0.053-0.302-0.029-0.46l0.172-2.414c0-0.057-0.006-0.2,0.004-0.248
	c0.024-0.113,0.038-0.108,0.176-0.111c0,0.207-0.025,0.28-0.036,0.431c-0.012,0.158,0.008,0.344,0.001,0.504l-0.072,1.364
	c-0.009,0.565-0.18,1.693-0.181,2.26C101.165,26.564,100.779,28.562,100.771,28.907L100.771,28.907z M99.371,21.762
	c0.113,0.083,0.072,0.13,0.072,0.323h-0.036C99.406,21.905,99.375,21.924,99.371,21.762L99.371,21.762z M103.176,25.46l0.072-1.328
	c0.012-0.154-0.004-0.345-0.002-0.504c0.003-0.182,0.039-0.218,0.038-0.429c-0.001-0.289,0.025-1.203,0.071-1.401
	c0.228,0,0.3-0.036,0.539-0.036h3.267l-2.199,2.324l-0.679,0.542c-0.093,0.073-0.158,0.131-0.26,0.207
	c-0.11,0.082-0.178,0.134-0.287,0.215C103.538,25.197,103.372,25.328,103.176,25.46L103.176,25.46z M98.114,20.577h0.215v0.036
	h-0.215V20.577z M96.965,18.854c0.004-0.004,0.011,0.006,0.011,0.011L96.965,18.854z M99.155,17.561l0.011,0.011
	C99.165,17.571,99.151,17.565,99.155,17.561z M99.119,17.022h-0.036l0.03-0.042L99.119,17.022z M99.765,16.053h0.036l-0.03,0.042
	L99.765,16.053z M100.268,15.981l0.011,0.011C100.278,15.991,100.264,15.985,100.268,15.981z M100.232,15.909l0.011,0.011
	C100.242,15.919,100.229,15.913,100.232,15.909z M99.765,16.053l-0.287-0.179c-0.129,0.068-0.133,0.057-0.215,0.179
	c0.037,0.158,0.093,0.15,0.108,0.323c-0.082,0.055-0.072,0.069-0.215,0.072c0.038,0.056,0.082,0.11,0.111,0.178
	c0.023,0.054,0.02,0.035,0.026,0.11l0.007,0.717l-0.179,0.036l-0.015-0.202c0.029-0.12,0.038,0.019,0.042-0.114
	c0.001-0.035-0.019-0.057-0.026-0.15l0.138,0.114l0.006-0.222c-0.287,0.006-0.136,0.107-0.301-0.309
	c-0.083-0.21-0.168-0.287-0.273-0.445c-0.092,0.061-0.116,0.092-0.18,0.179c-0.065,0.09-0.119,0.126-0.179,0.215
	c0.071,0.304,0.287,0.752,0.287,1.041c-0.169,0.089-0.147,0.072-0.395,0.072c-0.057,0.085-0.044,0.037-0.072,0.144
	c-0.283,0-0.652,0.016-0.914-0.024c-0.15-0.023-0.137,0.004-0.199,0.096c0.031,0.117,0.063,0.148,0.179,0.179
	c0.025-0.105-0.005-0.052,0.072-0.108l0.171,0.188c0.162-0.09,0.073,0.002,0.116-0.116c0.338,0,0.197-0.025,0.395,0.108
	c0.085-0.057,0.037-0.043,0.144-0.072l0.144,0.179c-0.476,0-0.305-0.025-0.441,0.064c-0.174,0.113-0.181-0.011-0.313-0.1
	l-0.207,0.224c-0.016-0.105-0.025-0.106-0.044-0.188c-0.131,0.035-0.075,0.038-0.18,0.108l-0.04-0.142l-0.147,0.134
	c-0.098-0.02-0.05-0.007-0.136-0.064c-0.1,0.428,0.296,0.118,0.644,0.361l0.038,0.033c-0.913,0-0.637,0.114-0.61,0.215l-0.035,0.04
	c-0.155,0.225,0.048,0.168,0.169,0.185c0.124,0.018,0.402,0.063,0.548,0.063v0.072c-0.259,0-0.427,0.067-0.646,0.072
	c0.023,0.277,0.115,0.195,0.359,0.251v0.144l-0.214,0.041l-0.001,0.102l0.862,0.036c-0.078,0.147-0.043,0.095-0.238,0.157
	c-0.124,0.04-0.206,0.083-0.337,0.094c0.023,0.282,0.273,0.247,0.339,0.271c0.16,0.057,0.002-0.024,0.12,0.096
	c0.184,0.188,0.075,0.42,0.166,0.552c0.069,0.099-0.02,0.008,0.091,0.053c0.203,0.081,0.078,0.059,0.197,0.126l0.307,0.196
	c-0.036,0.133-0.036,0.046-0.072,0.179c0.078-0.018,0.22-0.075,0.287-0.108c0.08,0.151,0.024,0.144,0.251,0.144
	c0,0.811-0.07,1.509-0.071,2.299c0,0.208-0.038,0.296-0.037,0.538l-0.074,1.11c-0.114,1.019-0.177,1.62-0.348,2.632
	c-0.117,0.692-0.262,1.335-0.372,2.034c-0.181,1.153-0.598,2.713-0.887,3.853l-0.523,1.846c-0.096,0.326-0.164,0.599-0.26,0.924
	c-0.135,0.455-0.193,0.571-0.193,1.028c0.121-0.044,0.176-0.257,0.287-0.467h0.287l0.287,0.359
	c-0.139,0.597-0.354,0.706,0.144,0.969c0.08-0.042,0.108-0.06,0.18-0.108l0.108,0.108c0.036,0.133,0.036,0.046,0.072,0.179
	l0.37-0.85c0.041-0.1,0.073-0.197,0.096-0.298l0.431,0.179c0.079-0.165,0.054-0.488,0.323-0.431c-0.06,0.125-0.12,0.583-0.14,0.758
	c-0.068,0.583-0.141,0.659,0.068,0.714c0.057-0.243,0.215-0.243,0.215-0.539c0.073,0.077,0.063,0.127,0.131-0.083
	c0.036-0.111,0.06-0.172,0.084-0.276l0.144,0.072c0-0.19,0-0.054,0.036-0.108c0,0.134-0.141,0.854-0.179,0.934
	c0.15-0.012,0.145-0.049,0.209-0.15c0.178-0.28,0.179-0.543,0.318-0.76c0.053-0.082,0.009-0.015,0.048-0.06
	c-0.012,0.138-0.036,0.116-0.036,0.287c0.258-0.06,0.277-0.183,0.435-0.607c0.049-0.131,0.029-0.143,0.212-0.147
	c0.02,0.085,0.033,0.106,0.036,0.215c0.122-0.089,0.039,0.011,0.087-0.164l0.204-0.658c0.045-0.137,0.098-0.281,0.145-0.43
	c0.045-0.143,0.074-0.302,0.139-0.436c0.305,0.204,0.326,0.108,0.431,0.251c-0.105,0.028-0.239,0.123-0.323,0.18
	c0.028,0.333,0.091,0.278,0.163,0.303c0.108,0.038,0.261,0.082,0.375,0.092l-0.186,0.209c0.031,0.111,0.054,0.135,0.098,0.238
	c0.095,0.222,0.181,0.107,0.627,0.343c-0.057,0.078-0.072,0.037-0.099,0.14c-0.001,0.006-0.001,0.018-0.002,0.023
	c-0.015,0.081-0.037,0.145,0.252,0.189c0.142,0.021,0.219,0.029,0.35,0.045l1.948,0.314c0.149,0.022,2.035,0.03,2.24-0.007
	l0.697-0.057c0.504-0.035,0.869-0.09,1.314-0.194c0.433-0.101,0.799-0.181,1.221-0.287c0.485-0.121,0.686-0.142,1.14-0.368
	c0.229-0.114,0.433-0.315,0.608-0.505c0.102-0.111,0.074-0.137,0.134-0.261c-0.258,0.021-0.226,0.321-0.682,0.359
	c0.3-0.568,0.71-0.391,0.826-0.826c-0.166,0.004-0.352,0.073-0.503,0.108c0.06-0.226,0.303-0.369,0.359-0.61h-0.215
	c0.281-0.586,0.144-0.413-0.072-0.395c-0.077-0.105-0.023-0.044-0.144-0.108c0.064-0.12,0.027-0.101,0.144-0.179
	c0.094,0.063,0.074,0.018,0.108,0.144h0.072c0.012-0.139,0.032-0.094,0.036-0.251c0.083,0.056,0.116,0.097,0.251,0.108
	c-0.004-0.178-0.066-0.43-0.073-0.609l0.001-0.648c0,0.062,0.114,0.378,0.137,0.437c0.059,0.151,0.173,0.2,0.293,0.281
	c0.11-0.229,0.032-0.446,0.111-0.678c0.093-0.272,0.091-0.361,0.024-0.678c-0.057-0.272-0.099-0.325-0.22-0.57
	c-0.105-0.211-0.131-0.393-0.131-0.695c-0.218-0.146-0.414-0.915-0.527-1.196c-0.268-0.666-0.584-1.327-0.908-1.964
	c-0.04-0.079-0.069-0.112-0.108-0.18l-0.769-1.242c-0.09-0.124-0.16-0.204-0.244-0.33l-0.486-0.663
	c-0.393-0.513-0.214-0.328,0.407-1.153c0.275-0.365,0.62-0.693,0.853-1.086c0.069-0.117,0.114-0.203,0.189-0.314
	c0.323-0.482,0.841-1.658,0.359-2.161l-0.194-0.273c-0.066-0.101-0.132-0.214-0.186-0.316c-0.156,0.037-0.203,0.107-0.359,0.144
	c-0.009-0.111,0-0.068-0.036-0.144c0.087-0.042,0.164-0.061,0.251-0.108c0-0.191,0.014-0.412-0.215-0.431
	c-0.014-0.164-0.073-0.353-0.108-0.503c-0.137-0.011-0.294-0.06-0.431-0.072c0.077-0.115,0.059-0.025,0.072-0.179
	c-0.08-0.019-0.081-0.02-0.157-0.058l-0.13-0.086c0.247,0,0.252-0.066,0.431-0.108v-0.108c-0.119-0.028-0.154-0.064-0.251-0.108
	c-0.09-0.041-0.164-0.061-0.251-0.107c0.028-0.107,0.242-0.264,0.07-0.318c-0.076-0.024-0.396-0.008-0.537-0.041
	c0.03-0.019,0.015-0.017,0.072-0.036l0.251-0.072c-0.042-0.117,0.046-0.026-0.108-0.108l0.074-0.143l-0.792-0.109
	c0.147-0.034,0.17-0.082,0.24-0.191c0.013-0.021,0.052-0.053,0.083-0.096c-0.111-0.074-0.08-0.107-0.215-0.144
	c0.055-0.038,0.085-0.028,0.144-0.108c-0.505-0.338-0.401-0.168-0.823-0.218c-0.367-0.043-0.679-0.043-1.047,0
	c-0.324,0.038-0.843-0.067-1.036,0.007c-0.14,0.054-0.064,0.05-0.189,0.04c-0.413-0.034-2.425,0.052-2.514-0.037
	c-0.108-0.107-0.215-1.31-0.386-1.589c-0.12-0.195-0.303-0.065-0.397-0.465l-0.072,0.144l-0.173-0.15
	c-0.112,0.087-0.151,0.047-0.042,0.15c-0.106,0.028-0.058,0.015-0.144,0.072c0.051,0.106,0.086,0.243,0.13,0.372
	c0.069,0.2,0.104,0.273-0.059,0.382l-0.279-1.151c-0.088,0.044-0.116,0.062-0.188,0.11c-0.128-0.03-0.314-0.072-0.467-0.072
	c0.015,0.177,0.092,0.349,0.108,0.539l-0.108-0.251c-0.085,0.057-0.037,0.043-0.144,0.072c-0.013-0.153-0.059-0.17-0.072-0.323
	c-0.159,0.013-0.167,0.06-0.179,0.215c-0.217-0.051-0.131-0.032-0.215,0.144c-0.065-0.048-0.062-0.078-0.144-0.108
	c-0.012,0.012-0.034,0.035-0.051,0.057l-0.057,0.087c-0.022-0.094-0.033-0.106-0.072-0.179c-0.142,0.057,0.005-0.004-0.08,0.064
	c-0.055,0.044,0.044-0.001-0.091,0.053c-0.083,0.033-0.139,0.054-0.224,0.099L99.765,16.053L99.765,16.053z M41.1,38.887
	l0.011,0.011C41.11,38.897,41.096,38.891,41.1,38.887z M40.809,39.211c0.024-0.086,0.037-0.109,0.04-0.215h0.18v0.144
	c0.183-0.049,0.2-0.197,0.323-0.287v0.251c0.182-0.122,0.189-0.281,0.467-0.287c0.013-0.156,0.132-0.243,0.251-0.323
	c0.125,0.066,0.102,0.001,0.072,0.144c0.15-0.11,0.499-0.783,0.611-1.005l0.274-0.515c0.43-0.777,1.029-1.928,1.355-2.738
	l0.719-1.723c0.359-0.893,0.634-1.818,0.924-2.738c0.035-0.112,0.051-0.221,0.103-0.328h4.201c0,0.415,0.044,2.137-0.008,2.469
	c-0.092,0.588-0.076,1.876-0.099,2.451l-0.145,1.578l0.072-1.615c0.02-0.258-0.012-0.563-0.002-0.827
	c0.006-0.16,0.039-0.192,0.038-0.393c-0.001-0.144,0-0.288,0-0.431c0-0.129-0.008-0.262,0.01-0.389l-0.003-0.157
	c-0.021-0.079-0.021,0.019-0.016-0.056c0-0.008,0.022-0.052,0.023-0.056c0.015-0.084-0.014-0.626-0.014-0.814
	c0-0.313,0.036-0.477,0.036-0.79c0-0.287,0-0.574,0-0.862c-0.118,0.086-0.059,0.025-0.074,0.214l-0.192,3.075
	c-0.059,0.328-0.031,0.776-0.057,1.128l-0.071,1.114c-0.007,0.497-0.114,1.144-0.109,1.65c0.003,0.372-0.067,0.768-0.073,1.112
	c-0.004,0.249-0.037,0.397,0.109,0.504c0.224-0.164,0.229-0.447,0.251-0.718c0.028-0.341,0.072-0.567,0.072-0.969h0.036
	c0,0.219-0.031,0.764-0.016,0.875c0.026,0.198,0.015,0.228,0.073,0.396l0.158,0.309l0.107-1.077
	c0.007-0.161,0.036-0.194,0.036-0.395l0.036,0.682c0.075-0.055,0.042-0.006,0.075-0.105c0.012-0.035,0.033-0.135,0.033-0.183h0.036
	c0,0.317,0.067,0.551,0.014,0.84c-0.081,0.447-0.022,0.508,0.237,0.632c0.065-0.097,0.169-0.153,0.202-0.265
	c0.027-0.09,0.049-0.313,0.049-0.418l0.221,0.465c0.121-0.091,0.053-0.124,0.067-0.321c0.009-0.137,0.036-0.17,0.036-0.359
	c0.109,0.08,0.072,0.062,0.072,0.251l0.142,0.04c0.002,0.363-0.062,0.598-0.035,0.929c0.11-0.029,0.168-0.088,0.251-0.144
	c-0.032-0.137-0.113-0.53,0.042-0.641l0.174-0.113v1.005c0.091-0.021,0.122-0.038,0.205-0.082c0.13-0.067,0.096-0.036,0.127-0.196
	c0.027-0.139,0.094-0.341,0.098-0.512c0.006,0.006,0.014,0.008,0.016,0.019c0.027,0.128,0.199,0.09,0.199,0.555h0.072
	c0.019-0.082,0.028-0.083,0.036-0.179c0.079,0.038,0.141,0.063,0.251,0.072c0.095-0.179,0.101-0.426,0.106-0.648l0.073-0.214
	c0,0.149-0.055,0.458,0.055,0.556l0.038,0.033c0.107,0.091,0.237,0.133,0.373,0.165c0-0.216,0.02-0.384,0.036-0.61l0.395-4.236
	c0,0.618-0.009,1.475-0.1,2.054l-0.046,1.861c0.001,0.185-0.026,0.14,0.074,0.213c0.039-0.468,0.174-0.588,0.179-0.934
	c0.004-0.257,0.074-0.706,0.072-1.077l0.194-3.181c0.034-0.188,0.017-0.353,0.02-0.554c0.008-0.503,0.075-1.088,0.073-1.65
	c-0.001-0.241,0.037-0.33,0.037-0.537c0-0.192-0.001-0.384-0.001-0.575c0.135-0.011,0.118-0.035,0.286-0.037
	c0.117-0.002,0.237,0.012,0.353-0.006c0.222-0.035,1.128-0.031,1.252-0.112c0.054-0.035,0.132-0.127,0.181-0.178
	c0.104-0.107,0.07-0.098,0.261-0.098c-0.005-0.21-0.056-0.137-0.072-0.323c0.109-0.149,0.094,0.007,0.144-0.179
	c-0.191,0-0.217-0.024-0.359-0.036c0.05-0.216,0.16-0.381,0.179-0.61c-0.164-0.245-0.269-0.144-0.574-0.144v-0.144l-0.682,0.036
	c0.007-0.323,0.13-0.006,0.933-0.431c-0.091-0.124-0.111-0.099-0.223-0.28c-0.114-0.185-0.149-0.159-0.101-0.366
	c-0.454,0-0.284,0.118-0.583-0.171c-0.229-0.221-0.259-0.132-0.414-0.176c-0.023-0.007-0.082-0.06-0.117-0.083
	c0.039-0.059,0.071-0.108,0.115-0.172c0.056-0.082,0.09-0.1,0.1-0.223c-0.13-0.035-0.11-0.077-0.22-0.139
	c-0.114-0.064-0.019-0.015-0.137-0.043l-0.146-0.07c0.126,0,0.196-0.006,0.285-0.038c0.128-0.045,0.133-0.027,0.146-0.177H54.85
	c-0.072-0.31-0.056-0.884-0.008-1.193c0.037-0.237-0.015-0.425-0.028-0.602c-0.015-0.196,0.028-0.425-0.072-0.575l0.062-0.082
	c0.078-0.142,0.037-0.299,0.003-0.417c-0.037-0.13,0.005-0.09,0.03-0.232c0.019-0.109-0.045-0.162-0.05-0.242l0.055-1.261
	c0.062-0.4,0.015-0.942-0.025-1.287c-0.031-0.265-0.004-0.661-0.036-0.933c-0.012-0.099-0.003-0.252-0.003-0.356
	c-0.153-0.013-0.199-0.103-0.29-0.213l-0.069,0.428c0-0.234-0.093-0.552-0.287-0.682c-0.151,0.111-0.027,0.152-0.215,0.251v-0.323
	c-0.19,0-0.053,0-0.108-0.036L53.6,17.784l-0.047-0.149c-0.17,0.045-0.037,0.06-0.211,0.106c-0.033-0.141-0.017-0.146-0.144-0.179
	c0,0.261,0.036,0.398,0.036,0.682l-0.138,0.114c-0.064-0.256-0.161-0.505-0.185-0.796H52.84c0.019,0.082,0.068,0.185,0.07,0.253
	c0.006,0.133-0.057,0.119-0.027,0.313c0.036,0.234,0.05,0.377-0.007,0.619c-0.075-0.055-0.041-0.006-0.075-0.105
	c-0.054-0.159-0.033-0.34-0.033-0.506c0.001-0.301-0.052-0.411-0.072-0.646l-0.244,0.223c-0.165-0.011-0.175-0.043-0.366-0.043
	c-0.082-0.154,0.01-0.065-0.108-0.108l0.043,0.502c-0.356-0.028-0.263-0.07-0.33-0.358l-0.024,0.002
	c-0.132,0.018,0.023,0.077-0.054-0.001c-0.049-0.049-0.01-0.001-0.029-0.073h-0.395c-0.026,0.113-0.045,0.246-0.072,0.359
	l-0.144-0.323c-0.291,0.024-0.109,0.314-0.108,0.862c0,0.149,0.014,0.168,0.028,0.259l0.008,0.818c0-0.199-0.059-0.284-0.094-0.48
	c-0.046-0.255,0.023-0.35,0.023-0.561h-0.036c0,0.156,0.02,0.076-0.072,0.144c-0.024-0.288-0.191-0.573-0.215-0.862
	c-0.446,0.104-0.286,0.338-0.287,0.79c-0.001,0.395,0,0.79,0,1.185c0,0.421,0.036,0.705,0.036,1.113v1.185h0.108l0-1.185
	c-0.001-0.197,0.036-0.245,0.036-0.395v2.729c0-0.205-0.004-0.319-0.028-0.475c-0.014-0.089-0.004-0.158-0.007-0.245
	c-0.005-0.155-0.026-0.113-0.037-0.25l-0.072,3.159h-3.267l0.255-2.437c0.017-0.125,0.057-0.342,0.067-0.472
	c0.053-0.686,0.125-1.423,0.073-2.118c-0.011-0.141-0.026-0.074-0.036-0.215c-0.018-0.241-0.002-0.516-0.076-0.75
	c-0.037-0.118-0.028-0.252-0.101-0.363c-0.303-0.462-0.369-0.719-0.936-0.719c0.027-0.024,0.01-0.024,0.061-0.047
	c0.073-0.034,0.017-0.009,0.083-0.025c-0.081-0.11,0.023-0.058-0.144-0.072c0.048-0.071,0.065-0.1,0.108-0.179
	c-0.338-0.504-0.26-0.109-0.431-0.431l-1.437-0.001c-0.156,0.006-0.113,0.028-0.25,0.037l-0.501-0.001
	c-0.204-0.009-0.359,0.015-0.555-0.021c-0.488-0.088-1.016,0.119-1.343,0.051l-0.232-0.067c-0.02,0.083-0.471,0.03-0.56,0.039
	l-1.512,0.07c-0.542,0-0.333-0.066-0.646,0.144v-0.144c-0.083,0.061-0.152,0.168-0.179,0.287c0.38,0.089,0.787,0.029,0.898,0.179
	c-0.178,0-0.208-0.036-0.324-0.037c-0.146-0.002-0.203,0.042-0.214,0.181c0.156,0,0.202,0.035,0.358,0.037
	c0.13,0.002,0.265-0.001,0.396-0.001v0.072c-0.417,0-0.748,0.098-0.826,0.431c0.074,0.035,0.197,0.051,0.287,0.072
	c-0.012,0.146-0.019,0.146-0.144,0.18c0.003,0.109,0.016,0.131,0.036,0.215h0.215v0.179c-0.174,0.062,0.088-0.077-0.108,0
	c0.032,0.136,0.11,0.219,0.18,0.323h1.005c-0.006,0.006-0.016,0.006-0.02,0.016l-0.069,0.039c-0.087,0.052-0.054-0.005-0.091,0.088
	c0.178-0.041,0.392,0,0.646,0v0.036c-0.229,0-0.483-0.024-0.704,0.014l-0.455,0.084c-0.012,0.003-0.048,0.01-0.059,0.013
	c-0.062,0.019-0.04,0.012-0.074,0.033c0.167,0.039,0.528,0.108,0.718,0.108l-0.574,0.072c0.232,0,0.323,0.037,0.574,0.036
	l0.49,0.012c0.008,0.003,0.018,0.007,0.025,0.011c0.049,0.023,0.033,0.026,0.059,0.049c-0.381,0-0.356-0.04-0.395,0.108
	c0.142,0,0.146,0.011,0.251,0.036c-0.057,0.085-0.043,0.037-0.072,0.144c0.151,0.013,0.19,0.072,0.323,0.072v0.036
	c-0.087,0-0.095,0.02-0.151,0.028l-0.603,0.044c0.013,0.159-0.046,0.039,0.171,0.224c0.148,0.127,0.231,0.139,0.412,0.198
	c0.305,0.099,0.244,0.209,0.401,0.248c0.142,0.036,0.009-0.027,0.311,0.008c0.121,0.014,0.302,0.004,0.43,0.003l0.825,0.036
	l-0.08,0.997c-0.073,0.493-0.308,2.494-0.459,2.808h-2.729c-0.063,0.094-0.089,0.149-0.144,0.251
	c0.097,0.183,0.086,0.144,0.036,0.359c0.098,0.147,0.181,0.193,0.215,0.323c0.133-0.036,0.046-0.036,0.179-0.072v0.18
	c0.139,0.012,0.093,0.032,0.251,0.036v0.072c-0.191,0-0.201,0.032-0.359,0.036c0.183,0.249,0.453-0.018,0.826,0.179
	c-0.035,0.131-0.038,0.075-0.108,0.179c-0.435,0-0.265,0.013-0.539,0.036c0.013,0.153,0.059,0.17,0.072,0.323
	c0.267,0.022,0.545,0.144,0.826,0.144v0.036c-0.197,0-0.414,0.091-0.61,0.108v0.072c0.442,0.103,1.13-0.005,1.616,0.108
	l-0.046,0.026c-0.014,0.006-0.033,0.014-0.052,0.02c-0.061,0.019-0.046,0.017-0.119,0.024c-0.103,0.01-0.163-0.002-0.271,0.017
	c-0.116,0.02-0.418,0.055-0.517,0.057l0.077,0.103l-0.435,0.047l-0.001,0.101c0.198,0.016,0.252,0.103,0.467,0.108
	c0,0.391-0.178,0.299-0.251,0.574H41.1c0.108,0.225,0.03,0.291,0.323,0.359l-0.533,1.728c-0.232,0.587-0.489,1.323-0.759,1.862
	c-0.044,0.087-0.088,0.163-0.129,0.265c-0.082,0.205-0.158,0.358-0.235,0.555c-0.091,0.232-0.32,0.837-0.469,1.039
	c-0.174,0.235,0.103-0.019-0.23,0.524l-0.438,0.854c-0.033,0.049-0.06,0.056-0.101,0.115L38,37.189
	c-0.057,0.116-0.087,0.148-0.144,0.251c-0.053,0.096-0.085,0.176-0.131,0.264c0.064,0.12,0.027,0.101,0.144,0.179
	c0.076-0.327,0.137-0.082,0.144-0.395c0.341,0,0.224-0.059,0.517-0.452l0.667-0.984c-0.009,0.11-0.034,0.173-0.072,0.251
	c0.204-0.055,0.257-0.351,0.431-0.467c-0.054,0.23-0.389,0.843-0.515,1.1c-0.093,0.188-0.269,0.519-0.31,0.695
	c0.057,0.028-0.066,0.037,0.108,0c-0.033,0.066-0.028,0.045-0.036,0.144l0.142-0.04c-0.07,0.158-0.254,0.492-0.178,0.651
	c0.056-0.038,0.1-0.072,0.165-0.122c0.108-0.083,0.062-0.094,0.194-0.129c-0.078,0.148-0.108,0.165-0.108,0.395
	c0.042,0.01,0.128,0.03,0.169,0.049l0.082,0.095c0.2-0.017,0.041-0.034,0.156-0.05c0.054-0.008,0.072-0.005,0.108,0.071
	c0.1,0.215-0.102,0.124,0.167,0.266c0.038-0.143,0.089-0.11,0.168-0.263c0.062-0.119,0.087-0.165,0.165-0.266
	c0.111-0.143,0.264-0.431,0.385-0.512c0.186,0.351,0.064,0.434-0.065,0.905c-0.041,0.15-0.091,0.212-0.043,0.316
	c0.166-0.044,0.145-0.219,0.287-0.323c0.077,0.145,0.112,0.116,0.072,0.287l0.131,0.108L40.809,39.211L40.809,39.211z
	 M40.741,38.887l0.011,0.011C40.751,38.897,40.737,38.891,40.741,38.887z M52.66,38.026h0.036v0.108H52.66V38.026z M52.086,38.062
	l0.011,0.011C52.096,38.072,52.082,38.065,52.086,38.062z M40.418,37.846l0.011,0.011C40.427,37.856,40.414,37.85,40.418,37.846z
	 M40.489,37.774v0.036l-0.042-0.03L40.489,37.774z M40.509,37.697l-0.02,0.077L40.509,37.697z M38.838,37.523l0.011,0.011
	C38.848,37.533,38.834,37.527,38.838,37.523z M40.705,37.379h0.036v0.108h-0.036V37.379z M40.776,37.272c0-0.09,0.057-0.008,0.022,0
	C40.798,37.272,40.776,37.373,40.776,37.272z M40.933,37.099l-0.013-0.186h0.108L40.933,37.099z M50.111,36.446h0.036v0.179h-0.036
	V36.446z M41.1,36.805c-0.117-0.086-0.108,0.027,0.077-0.354c0.041-0.084,0.159-0.296,0.246-0.328
	c-0.032,0.119-0.025,0.058-0.084,0.167L41.1,36.805L41.1,36.805z M41.423,36.015l0.011,0.011
	C41.433,36.025,41.419,36.019,41.423,36.015z M39.197,36.051l0.02-0.077L39.197,36.051z M41.53,35.872
	c-0.023,0.088,0.016,0.049-0.072,0.072L41.53,35.872z M41.566,35.8l-0.036,0.072L41.566,35.8z M41.566,35.764l0.042,0.03
	L41.566,35.8V35.764z M41.602,35.728v-0.144h0.072C41.659,35.651,41.658,35.703,41.602,35.728z M39.412,35.584l0.011,0.011
	C39.422,35.594,39.409,35.588,39.412,35.584z M39.448,35.512l0.011,0.011C39.458,35.523,39.445,35.516,39.448,35.512z M41.71,35.441
	l0.011,0.011C41.72,35.451,41.706,35.444,41.71,35.441z M39.484,35.441l0.011,0.011C39.494,35.451,39.48,35.444,39.484,35.441z
	 M41.746,35.369c0-0.09,0.057-0.008,0.022,0C41.768,35.369,41.746,35.47,41.746,35.369z M39.52,35.369l0.011,0.011
	C39.53,35.379,39.516,35.372,39.52,35.369z M39.592,35.297v0.036l-0.042-0.03L39.592,35.297z M39.628,35.225l-0.036,0.072
	L39.628,35.225z M39.663,35.153l-0.036,0.072L39.663,35.153z M39.699,35.081l-0.036,0.072L39.699,35.081z M41.925,34.974
	l0.077,0.103c-0.029,0.031-0.013,0.005-0.055,0.062c-0.107,0.149-0.039,0.123-0.166,0.157L41.925,34.974z M39.735,35.01
	l-0.036,0.072L39.735,35.01z M39.771,34.938l-0.036,0.072L39.771,34.938z M41.961,34.938l-0.036,0.036L41.961,34.938z
	 M41.997,34.902l-0.036,0.036L41.997,34.902z M39.807,34.866l-0.036,0.072L39.807,34.866z M42.141,34.722
	c-0.033,0.141-0.017,0.146-0.144,0.179l0.039-0.141C42.021,34.715,41.99,34.691,42.141,34.722L42.141,34.722z M42.141,34.687
	l0.042,0.03l-0.042,0.006V34.687z M54.204,33.861c0-0.09,0.057-0.008,0.022,0C54.226,33.861,54.204,33.962,54.204,33.861z
	 M42.213,34.615l-0.103-0.077c0.094-0.142,0.078-0.047,0.12-0.237l0.229-0.518c0.056-0.167,0.048-0.137,0.185-0.21
	c-0.047,0.2-0.104,0.37-0.179,0.539C42.341,34.388,42.275,34.346,42.213,34.615L42.213,34.615z M54.204,33.502h0.036v0.108h-0.036
	V33.502z M42.679,33.43c-0.029,0.108,0,0.079-0.108,0.108L42.679,33.43z M54.168,33.43l0.011,0.011
	C54.178,33.44,54.165,33.434,54.168,33.43z M42.679,33.43v-0.036l0.042,0.03L42.679,33.43z M42.787,33.322h-0.144
	c0.064-0.121,0.003-0.067,0.108-0.144c0.023,0.056,0.007,0.022,0.016,0.062L42.787,33.322L42.787,33.322z M39.807,34.866
	c0.069-0.297,0.581-1.157,0.766-1.532c0.024-0.049,0.038-0.082,0.059-0.121l0.025-0.047c0.054-0.085,0.006-0.013,0.048-0.06
	c-0.013,0.156-0.124,0.319-0.192,0.455c-0.083,0.166-0.144,0.289-0.227,0.455C40.199,34.191,39.894,34.802,39.807,34.866
	L39.807,34.866z M54.204,33.107l0.011,0.011C54.214,33.117,54.201,33.11,54.204,33.107z M40.705,33.107l0.02-0.077L40.705,33.107z
	 M40.74,32.963l0.011,0.011C40.751,32.973,40.737,32.967,40.74,32.963z M54.24,32.748l0.011,0.011
	C54.25,32.758,54.237,32.751,54.24,32.748z M43.074,32.389c0,0.43-0.014,0.266-0.161,0.459c-0.062,0.082-0.047,0.092,0.017,0.187
	c-0.068,0.05-0.003,0.008-0.056,0.052c-0.056,0.045-0.01,0.028-0.087,0.056c-0.102-0.219,0.17-0.417,0.179-0.431
	c-0.088-0.023-0.093,0.048-0.041-0.07c0.038-0.086,0.081-0.052,0.082-0.131C43.008,32.508,42.939,32.483,43.074,32.389
	L43.074,32.389z M43.074,32.389c0.006-0.274,0.053-0.062,0.089-0.347c0.04-0.313,0.154-0.095,0.09-0.371h0.144
	c-0.034,0.126-0.032,0.052-0.077,0.174c-0.021,0.056-0.031,0.121-0.053,0.198l-0.07,0.217c-0.004,0.007-0.009,0.016-0.014,0.022
	c-0.004,0.006-0.011,0.015-0.015,0.021c-0.005,0.006-0.012,0.013-0.017,0.019C43.107,32.371,43.119,32.356,43.074,32.389
	L43.074,32.389z M41.207,31.635l0.011,0.011C41.217,31.645,41.204,31.638,41.207,31.635z M41.243,31.527l0.011,0.011
	C41.253,31.537,41.24,31.531,41.243,31.527z M41.315,31.419l-0.02,0.077L41.315,31.419z M41.1,31.419l0.011,0.011
	C41.11,31.429,41.096,31.423,41.1,31.419z M41.351,31.312c0,0.17,0.001,0.068-0.036,0.108
	C41.315,31.249,41.314,31.351,41.351,31.312z M41.207,31.132l0.011,0.011C41.217,31.142,41.204,31.136,41.207,31.132z
	 M41.315,30.881l0.011,0.011C41.325,30.891,41.311,30.884,41.315,30.881z M44.977,30.486c0-0.09,0.057-0.008,0.022,0
	C44.999,30.486,44.977,30.587,44.977,30.486z M41.459,30.486l0.011,0.011C41.469,30.496,41.455,30.489,41.459,30.486z
	 M45.013,30.378c0-0.09,0.057-0.008,0.022,0C45.035,30.378,45.013,30.48,45.013,30.378z M43.397,31.635
	c-0.048-0.027-0.04-0.02-0.108-0.036c0.205-0.307,0.042-0.219,0.156-0.418c0.099-0.173,0.14-0.135,0.209-0.365
	c0.068-0.226-0.022-0.242,0.122-0.489c0.003-0.005,0.01-0.013,0.013-0.018c0.002-0.004,0.007-0.013,0.009-0.017
	c0.001-0.004,0.004-0.014,0.005-0.018c0-0.002-0.004-0.055,0.006-0.095c0.034-0.145,0.051-0.029,0.055-0.232h0.072
	C43.913,30.226,43.532,31.381,43.397,31.635L43.397,31.635z M45.121,30.163h-0.036c0-0.154-0.008-0.159,0.072-0.251
	C45.147,30.024,45.121,30.039,45.121,30.163L45.121,30.163z M41.351,31.312c0.015-0.174,0.171-0.564,0.237-0.732l0.215-0.646
	c0.004-0.01,0.018-0.041,0.022-0.049l0.028-0.044c-0.004,0.164-0.371,1.292-0.469,1.434c-0.004,0.005-0.013,0.015-0.017,0.019
	C41.365,31.297,41.357,31.305,41.351,31.312L41.351,31.312z M43.936,29.84l0.011,0.011C43.946,29.85,43.932,29.843,43.936,29.84z
	 M41.674,29.84l0.011,0.011C41.684,29.85,41.67,29.843,41.674,29.84z M41.854,29.84l0.02-0.077L41.854,29.84z M43.972,29.732
	l0.011,0.011C43.982,29.742,43.968,29.736,43.972,29.732z M45.228,29.768h-0.036c0-0.216-0.017-0.108,0.072-0.144
	C45.239,29.675,45.228,29.684,45.228,29.768L45.228,29.768z M40.31,26.393l-0.251,0.072C40.144,26.391,40.129,26.393,40.31,26.393z
	 M40.31,26.393c0.048-0.036-0.075-0.036,0.108-0.036v0.036H40.31z M41.351,25.926h0.287v0.036h-0.287V25.926z M39.735,25.89h0.359
	v0.036h-0.359V25.89z M50.542,25.029h0.036v0.287h-0.036V25.029z M54.707,25.208c0-0.09,0.057-0.008,0.022,0
	C54.729,25.208,54.707,25.31,54.707,25.208z M50.399,23.628l0.011,0.011C50.409,23.638,50.395,23.632,50.399,23.628z M50.614,23.126
	h0.036v0.144h-0.036V23.126z M50.614,22.695h0.036v0.108h-0.036V22.695z M51.26,22.515v0.215c-0.039-0.045,0.003,0.026-0.051-0.062
	C51.113,22.513,51.172,22.568,51.26,22.515L51.26,22.515z M50.578,22.3h0.036v0.144h-0.036V22.3z M51.188,20.792h0.036v1.472h-0.036
	V20.792z M50.578,21.007l0.011,0.011C50.588,21.017,50.574,21.011,50.578,21.007z M50.937,19.679h0.036v0.718h-0.036V19.679z
	 M50.506,20.325l0.077,0.02L50.506,20.325z M50.429,20.305l0.077,0.02L50.429,20.305z M50.47,19.643l0.011,0.011
	C50.48,19.653,50.467,19.647,50.47,19.643z M50.47,19.428h0.036v0.108H50.47V19.428z M39.376,19.356l-0.039-0.07l0.183-0.002v0.072
	H39.376z M41.423,18.279l0.287,0.072h-0.395L41.423,18.279z M40.884,18.207H41.1v0.036h-0.215V18.207z M52.122,17.991h0.036v0.215
	h-0.036V17.991z M40.382,18.171c0.19,0,0.212,0.002,0.359,0.036c-0.037,0.069-0.028,0.146-0.16,0.095
	c-0.111-0.042-0.023-0.095-0.199-0.095V18.171z M40.058,18.171h0.215v0.072c-0.084-0.02-0.106-0.036-0.215-0.036V18.171
	L40.058,18.171z M54.025,17.991h0.036v0.108h-0.036V17.991z M39.771,17.848l0.011,0.011C39.781,17.858,39.768,17.851,39.771,17.848z
	 M77.972,38.528h-0.036l0.03-0.042L77.972,38.528z M79.121,37.918h0.036l-0.03,0.042L79.121,37.918z M79.085,37.631l0.011,0.011
	C79.095,37.641,79.082,37.634,79.085,37.631z M79.121,37.918c-0.017-0.209-0.136-0.268-0.18-0.431
	c-0.115,0.083-0.037,0.098,0.035,0.216L79.121,37.918L79.121,37.918z M80.809,37.38c0.08-0.111,0.027-0.111,0.108,0H80.809z
	 M79.767,37.272l0.011,0.011C79.777,37.282,79.764,37.275,79.767,37.272z M79.157,37.236l0.041,0.07L79.157,37.236z M79.731,37.164
	l0.041,0.07L79.731,37.164z M79.157,37.236l-0.041-0.07L79.157,37.236z M79.696,37.092l0.036,0.072L79.696,37.092z M80.701,37.092
	c-0.018-0.1,0.086,0.017,0.035,0.014C80.669,37.102,80.715,37.167,80.701,37.092z M80.485,37.056h-0.036l0.03-0.042L80.485,37.056z
	 M66.77,36.949l-0.02,0.077L66.77,36.949z M79.049,36.949c0-0.09,0.057-0.008,0.022,0C79.071,36.949,79.049,37.05,79.049,36.949z
	 M66.806,36.877l-0.036,0.072L66.806,36.877z M78.547,36.877l0.011,0.011C78.557,36.887,78.543,36.88,78.547,36.877z M66.806,36.877
	v-0.036l0.042,0.03L66.806,36.877z M78.511,36.805h0.036l-0.03,0.042L78.511,36.805z M78.475,36.733l0.036,0.072L78.475,36.733z
	 M79.516,36.625c0.028,0.032,0.013-0.012,0.058,0.085c0.019,0.04,0.035,0.094,0.05,0.13c0.036,0.088,0.062,0.132,0.072,0.252
	c-0.094-0.069-0.076-0.065-0.122-0.201C79.539,36.788,79.519,36.75,79.516,36.625L79.516,36.625z M78.475,36.733h-0.036l0.03-0.042
	L78.475,36.733z M78.798,36.625c0.088,0.064,0.077,0.049,0.108,0.179C78.781,36.714,78.854,36.751,78.798,36.625z M79.516,36.625
	l-0.006-0.042l-0.03,0.042H79.516z M67.022,36.374l0.011,0.011C67.032,36.384,67.018,36.378,67.022,36.374z M67.094,36.302v0.036
	l-0.042-0.03L67.094,36.302z M78.726,36.231c0.004-0.004,0.011,0.006,0.011,0.011L78.726,36.231z M78.116,34.22
	c0.245,0.066,0.143,0.45,0.311,0.838c0.061,0.14,0.107,0.124,0.12,0.275c-0.121-0.064-0.123-0.033-0.166-0.193L78.116,34.22
	L78.116,34.22z M78.834,32.712c0.036,0.048,0.036-0.075,0.036,0.108h-0.036V32.712z M78.834,32.712
	c-0.005-0.007-0.014-0.026-0.015-0.021L78.834,32.712z M78.726,32.138h0.036v0.144h-0.036V32.138z M78.69,31.743h0.036v0.179H78.69
	V31.743z M77.577,31.491c0-0.09,0.057-0.008,0.022,0C77.599,31.491,77.577,31.593,77.577,31.491z M77.541,31.06
	c0-0.09,0.057-0.008,0.022,0C77.563,31.06,77.541,31.162,77.541,31.06z M77.506,30.953c0,0.102,0.022,0,0.022,0
	C77.563,30.944,77.506,30.863,77.506,30.953z M78.475,29.912h0.036c0,0.329,0.179,1.136,0.179,1.723h-0.072
	C78.618,31.044,78.475,30.502,78.475,29.912L78.475,29.912z M67.094,36.302l0.06-0.083c0.016-0.028,0.036-0.073,0.047-0.096
	l0.452-0.984l0.668-2.204c0.136-0.547,0.223-0.878,0.283-1.441c0.014-0.136,0.059-0.331,0.09-0.484
	c0.069-0.34,0.112-0.624,0.173-0.975c0.03-0.172,0.06-0.349,0.084-0.491c0.028-0.168,0.078-0.344,0.081-0.494l-0.458,1.912
	c-0.127,0.635-0.253,1.253-0.403,1.859c-0.154,0.617-0.31,1.201-0.489,1.808l-0.45,1.274C67.191,36.006,67.104,36.174,67.094,36.302
	L67.094,36.302z M78.439,29.014h0.036v0.108h-0.036V29.014z M69.033,28.834v0.144C68.943,28.913,68.909,28.908,69.033,28.834z
	 M68.997,28.691c0-0.09,0.057-0.008,0.022,0C69.018,28.691,68.997,28.792,68.997,28.691z M69.033,28.44V28.26h0.072
	c-0.001,0.029,0.004,0.075-0.006,0.102C69.08,28.411,69.039,28.426,69.033,28.44L69.033,28.44z M77.47,27.721l0.145,2.189
	c0.027,0.74,0.146,2.068,0.265,2.787c0.024,0.145,0.026,0.209,0.064,0.334c0.05,0.168-0.007,0.098-0.007,0.291
	c0,0.328,0.144,0.341,0.144,0.539l-0.359-3.411c-0.01-0.142-0.026-0.073-0.036-0.215l-0.144-2.908c0.002-0.335,0-0.671,0-1.006
	h-0.036C77.506,26.835,77.47,27.217,77.47,27.721L77.47,27.721z M69.104,28.009v0.108h-0.036
	C69.068,27.927,69.069,28.063,69.104,28.009z M69.146,28.003l-0.042-0.03v0.036L69.146,28.003z M69.176,27.829h-0.072
	c0.007-0.304,0.108-0.712,0.108-1.041h0.036c0,0.228,0.004,0.37,0.03,0.548C69.306,27.532,69.192,27.634,69.176,27.829
	L69.176,27.829z M69.284,26.537h-0.036v-0.359C69.434,26.314,69.284,26.33,69.284,26.537z M69.284,25.747h0.036
	c0,0.159,0.036,0.141,0.036,0.323C69.191,26.055,69.284,26.151,69.284,25.747L69.284,25.747z M69.391,25.639h-0.036
	c0-0.287,0.001-0.575,0-0.862c-0.001-0.201,0.031-0.233,0.038-0.393c0.006-0.137-0.001-0.293-0.001-0.432h0.036
	C69.427,24.56,69.391,25.052,69.391,25.639L69.391,25.639z M66.16,21.043c0.039-0.147,0.013-0.108,0.395-0.108v0.036
	C66.4,20.972,66.382,21.043,66.16,21.043z M66.663,20.648l0.011,0.011C66.673,20.658,66.659,20.652,66.663,20.648z M65.37,19.859
	l0.011,0.011C65.38,19.869,65.367,19.862,65.37,19.859z M65.478,18.028c0.117-0.056,0.228-0.036,0.395-0.036
	c-0.034,0.126-0.001,0.108-0.287,0.108C65.485,18.099,65.519,18.084,65.478,18.028z M67.094,16.591
	c0.023,0.026,0.025,0.014,0.062,0.082c0.035,0.065,0.029,0.062,0.046,0.133C67.115,16.743,67.106,16.735,67.094,16.591z
	 M67.094,16.484h-0.036c0,0.183-0.001,0.06,0.036,0.108V16.484z M67.165,16.412h0.036l-0.03,0.042L67.165,16.412z M67.165,16.412
	c-0.03-0.131-0.02-0.115-0.108-0.179C67.088,16.363,67.078,16.347,67.165,16.412z M77.972,38.528
	c0.106,0.028,0.058,0.015,0.144,0.072c-0.042-0.18-0.133-0.196-0.179-0.395c0.128,0.086,0.21,0.211,0.281,0.257
	c0.084,0.055,0.05,0.006,0.141,0.074c0.146,0.11,0.215,0.3,0.404,0.35c0.008-0.34,0.109-0.065-0.214-0.612
	c-0.059-0.099-0.109-0.192-0.174-0.293c-0.105-0.163-0.079-0.142-0.079-0.388c0.006,0.006,0.013,0.009,0.016,0.02l0.245,0.257
	c0.057,0.069,0.054,0.06,0.112,0.14c0.069,0.094,0.058,0.093,0.166,0.122l0.04-0.142c0.091,0.063,0.25,0.307,0.283,0.429
	c0.076-0.056,0.091-0.102,0.144-0.179c0.083,0.056,0.141,0.114,0.251,0.144c-0.022-0.269-0.251-0.429-0.251-0.754
	c0.257,0.296,0.391,0.786,0.718,1.005c0.052-0.112-0.015-0.181-0.072-0.287c0.055-0.079,0.006-0.045,0.108-0.072
	c-0.013-0.151-0.041-0.118-0.072-0.251l0.296,0.279c0.105-0.034,0.043,0.086,0.063-0.099l0.209,0.187
	c0.149-0.297-0.293-0.962-0.315-1.05c-0.023-0.093-0.013-0.102-0.052-0.199c-0.042-0.106-0.047-0.066-0.057-0.194h0.072
	c0.061,0.261,0.278,0.474,0.437,0.676c0.082,0.104,0.186,0.285,0.352,0.33c-0.122-0.23-0.448-0.664-0.503-0.898
	c0.157,0.105,0.153,0.209,0.323,0.323c0.017,0.073,0.012,0.068,0.048,0.131c0,0,0.041,0.057,0.045,0.063
	c0.052,0.067,0.022,0.025,0.05,0.058l0.034-0.106c0.123,0.157,0.115,0.285,0.361,0.285l-0.074,0.143
	c0.099,0.009,0.1,0.018,0.181,0.037c-0.006-0.254-0.14-0.547-0.22-0.749c-0.218-0.551-0.543-0.906-0.78-1.625
	c-0.17-0.514-0.327-1.079-0.433-1.614l-0.577-3.839c-0.008-0.113,0.009-0.247,0-0.359c-0.01-0.134-0.035-0.117-0.037-0.286
	c-0.008-0.521-0.072-1.105-0.07-1.617c0.001-0.455,0-0.91,0-1.364c0-0.489,0.038-0.844,0.036-1.328l0.075-1.29
	c0.117-1.045,0.316-2.771,0.648-3.768c0.1-0.3,0.032-0.625,0.032-0.938c-0.097-0.008-0.098-0.017-0.18-0.036
	c0.017-0.201,0.049-0.076,0-0.287c-0.122,0.01-0.131,0.027-0.215,0.072l-0.04-0.142c-0.029,0.042-0.019-0.042-0.032,0.106
	c-0.155-0.013-0.243-0.132-0.323-0.251c-0.093,0.025-0.04-0.013-0.072,0.072l-0.072-0.108c-0.147,0.039-0.225,0.18-0.359,0.251
	c0.012-0.142,0.06-0.217,0.072-0.359c-0.112-0.026-0.104-0.046-0.215-0.072c-0.064,0.043-0.122,0.08-0.163,0.16
	c-0.077,0.15,0.016,0.158-0.196,0.163c0-0.16,0.019-0.209-0.036-0.323c-0.1,0.073-0.119,0.173-0.179,0.287h-0.179
	c-0.117-0.22-0.425-0.562-0.467-0.718c-0.079,0.018-0.337,0.13-0.42,0.094c-0.096-0.042,0.025-0.009,0.025-0.417
	c-0.389,0-0.16-0.071-0.696,0.022l-2.391-0.022c-1.098,0-2.087,0.036-3.195,0.036c-0.044-0.525-0.354-1.483-0.809-1.776
	c-0.137-0.088-0.283-0.055-0.485-0.054c-0.432,0.001-0.314-0.216-0.825-0.216c0,0.131-0.019,0.305,0.027,0.404l0.189,0.17
	c0.013,0.153,0.059,0.17,0.072,0.323c-0.41-0.11-0.519-0.74-0.848-0.839c-0.2-0.06-0.108,0.029-0.157-0.094h-0.108
	c-0.047,0.123-0.022,0.063-0.363,0.004c-0.229-0.04-0.296-0.075-0.186,0.153c0.097,0.202,0.011,0.157-0.189,0.117
	c-0.367-0.074-0.143-0.058-0.338-0.201c-0.073,0.151-0.007,0.235,0.029,0.366c0.037,0.137,0.062,0.242,0.115,0.352
	c-0.119-0.043-0.123-0.176-0.192-0.311c-0.062-0.123-0.109-0.224-0.168-0.335c-0.749,0-0.562,0.3-0.474,0.653
	c0.025,0.102,0.038,0.125,0.06,0.23c0.043,0.208-0.006,0.164,0.07,0.43c0.055,0.194,0.111,0.474,0.201,0.661
	c-0.099,0.023-0.189,0.049-0.287,0.072c-0.032-0.065-0.028-0.045-0.036-0.144c-0.047,0.025-0.068,0.033-0.113,0.066
	c-0.087,0.065-0.027,0.058-0.139,0.077c-0.191,0.033-0.263-0.008-0.358-0.072l-0.826,0.108c0.019,0.082,0.028,0.083,0.036,0.179
	c0.096-0.008,0.219-0.039,0.287-0.072c0.022,0.094,0.033,0.106,0.072,0.179c0.18,0,0.221,0.036,0.431,0.036v0.036
	c-0.152,0-0.169,0.036-0.359,0.036v0.251c0.252,0,0.29-0.05,0.395,0.108c-0.156,0.075-0.409,0.1-0.574,0.179
	c0.032,0.137,0.036,0.143,0.036,0.323c0.174,0.092,0.153,0.075,0.222,0.245C65.251,19.52,65.36,19.5,65.55,19.5
	c0.03,0.127,0.053,0.215-0.088,0.271c-0.192,0.077-0.14-0.036-0.271,0.16c0.239,0,0.286,0.031,0.47,0.068
	c0.133,0.027,0.112,0.024,0.213,0.075l0.16,0.092c0.004,0.003,0.013,0.011,0.019,0.017c-0.249,0-0.364,0.036-0.574,0.036
	c-0.095,0.18-0.125,0.188-0.108,0.395l0.682-0.036c0.421-0.032,0.531-0.046,0.575,0.144c-0.099,0-0.228-0.007-0.323,0
	c-0.138,0.01-0.114,0.036-0.287,0.036c0.017,0.21,0.129,0.165,0.036,0.359c0.218,0,0.194-0.032,0.287,0.108l-0.144,0.144
	c0.116,0.027,0.223,0.072,0.359,0.072v0.036c-0.151,0-0.145-0.015-0.251,0.036c0.119,0.162,0.468,0.229,0.646,0.323
	c0,0.439,0.038,0.75,0.056,1.162c0.006,0.145-0.091,0.194-0.035,0.504c0.044,0.244,0.034,0.945,0.015,1.206
	c-0.01,0.137-0.031,0.094-0.037,0.25c-0.004,0.103,0.009,0.223,0.002,0.325c-0.012,0.155-0.067,0.375-0.073,0.537
	c-0.028,0.709,0.024,0.89-0.145,1.722c-0.04,0.196-0.053,0.307-0.069,0.541c-0.065,0.919-0.264,1.846-0.433,2.69l-0.464,1.977
	c-0.084,0.316-0.206,0.624-0.287,0.934c-0.178,0.678-0.466,1.369-0.766,1.999c-0.169,0.355-0.371,0.723-0.484,1.095
	c-0.048,0.157-0.058,0.367-0.113,0.497c-0.075,0.178-0.267,0.416-0.301,0.616c-0.023,0.132,0.051-0.065-0.002,0.091
	c-0.051,0.15,0.004,0.047-0.093,0.081c0.07,0.104,0.073,0.048,0.108,0.18c0.169,0,0.161,0.006,0.287,0.036l-0.059,0.048
	c-0.005,0.004-0.015,0.011-0.02,0.016c-0.045,0.043-0.036,0.036-0.065,0.079l0.136,0.152c-0.021-0.145-0.049-0.109,0.098-0.168
	c0.236-0.093,0.24-0.102,0.387-0.297c0.06-0.08,0.092-0.137,0.17-0.189c0.056,0.24,0.105,0.087,0.029,0.387
	c-0.031,0.12-0.047,0.292-0.1,0.403c0.141-0.003,0.084,0.01,0.179-0.036c0.004,0.158,0.024,0.112,0.036,0.251
	c0.251-0.058,0.402-0.266,0.646-0.323c0,0.213-0.073,0.261-0.144,0.395c0.324-0.087,0.827-1.045,0.981-1.317
	c0.05-0.088,0.064-0.154,0.168-0.191c-0.067,0.126-0.363,0.697-0.389,0.832l-0.042,0.389c0.124-0.033,0.11-0.019,0.144-0.144
	c0.182,0,0.185-0.024,0.323-0.036c-0.014,0.172-0.079,0.182-0.002,0.361c0.046,0.106,0.115,0.171,0.145,0.286
	c0.184-0.049,0.27-0.323,0.431-0.431c0,0.142-0.011,0.146-0.036,0.251c0.157-0.013,0.138-0.051,0.21-0.149
	c0.094-0.129,0.339-0.556,0.472-0.605c-0.064,0.133-0.008,0.19-0.072,0.323l0.294-0.316c0.554-0.701,1.103-2.225,1.441-3.011
	c0.195-0.453,0.33-0.974,0.455-1.448c0.226-0.853,0.493-1.661,0.667-2.528c0.146-0.726,0.251-1.453,0.37-2.179
	c0.062-0.378,0.104-0.708,0.151-1.105l0.177-1.726c0.004-0.105-0.004-0.22-0.003-0.326c0.002-0.168,0.027-0.151,0.037-0.286
	c0.014-0.19,0-0.449,0-0.646c0-0.258,0.037-0.397,0.037-0.609c0.001-0.882,0.035-1.654,0.035-2.514h4.021
	c0,0.492-0.259,1.622-0.287,2.298c-0.025,0.613-0.148,1.175-0.144,1.795c0.001,0.098,0.007,0.229,0,0.324
	c-0.01,0.134-0.035,0.117-0.037,0.286c-0.007,0.447-0.042,2.253,0.016,2.572l0.193,2.428c0.059,0.397,0.087,0.776,0.148,1.145
	c0.118,0.718,0.223,1.478,0.399,2.186c0.173,0.697,0.299,1.388,0.525,2.06l0.385,0.908c0.167,0.337,0.524,0.895,0.834,1.104
	c0.175,0.118,0.253,0.182,0.482,0.128c-0.017-0.199-0.067-0.133-0.108-0.287c0.131-0.035,0.075-0.038,0.18-0.108
	C77.989,38.626,77.98,38.625,77.972,38.528L77.972,38.528z M92.154,37.954c-0.176,0.122-0.369,0.108-0.574,0.108
	C91.694,37.962,91.972,37.954,92.154,37.954z M92.196,37.948l-0.042-0.03v0.036L92.196,37.948z M92.585,36.554l0.011,0.011
	C92.595,36.564,92.581,36.557,92.585,36.554z M93.626,36.195h-0.108C93.599,36.083,93.545,36.083,93.626,36.195z M94.555,35.873
	l0.112-0.001c-0.014,0.167,0.038,0.063-0.072,0.144L94.555,35.873L94.555,35.873z M93.77,35.728c0-0.09,0.057-0.008,0.022,0
	C93.791,35.728,93.77,35.829,93.77,35.728z M94.775,35.512c0,0.142-0.011,0.146-0.036,0.251l-0.103-0.077l0.123-0.155
	C94.762,35.528,94.769,35.519,94.775,35.512L94.775,35.512z M93.913,35.369c-0.034,0.145-0.01,0.108-0.108,0.144
	C93.869,35.392,93.808,35.446,93.913,35.369z M93.933,35.292l-0.02,0.077L93.933,35.292z M93.267,36.338
	c0.023-0.274,0.467-1.052,0.467-1.544c-0.11,0.08-0.043-0.005-0.095,0.156l-0.407,1.137l-0.215-0.036
	c-0.016,0.194-0.246,0.627-0.251,0.646c0.094,0.022,0.106,0.033,0.18,0.072c0.05-0.095,0.028-0.069,0.1-0.152
	c0.078-0.091,0.05-0.024,0.08-0.135c-0.084,0.044-0.093,0.062-0.215,0.072C92.949,36.402,93.097,36.352,93.267,36.338L93.267,36.338
	z M91.615,34.794l0.011,0.011C91.625,34.804,91.612,34.798,91.615,34.794z M91.4,34.759l0.011,0.011
	C91.41,34.769,91.396,34.762,91.4,34.759z M94.344,34.723c0.013-0.151,0.072-0.19,0.072-0.323h0.036
	C94.452,34.564,94.441,34.655,94.344,34.723L94.344,34.723z M81.85,33.143c0.164,0.188,0.215,0.803,0.215,1.041h-0.036
	C82.029,33.989,81.85,33.833,81.85,33.143L81.85,33.143z M92.01,33.681c-0.065-0.279,0.144-0.423,0.144-0.682l-0.067,0.543
	C92.05,33.71,92.133,33.592,92.01,33.681L92.01,33.681z M92.334,32.209l0.011,0.011C92.344,32.219,92.33,32.213,92.334,32.209z
	 M94.236,31.168v-0.323h0.036c0,0.192,0.036,0.033,0.036,0.179C94.308,31.084,94.277,31.15,94.236,31.168L94.236,31.168z
	 M94.272,30.701v-0.215c0.032,0.018,0.072,0.023,0.072,0.072C94.344,30.618,94.313,30.683,94.272,30.701z M85.081,30.522
	l0.036-0.216c0.02-0.053,0.019-0.044,0.036-0.071c0.041,0.174,0.036,0.25,0.036,0.467c-0.006-0.006-0.014-0.025-0.017-0.019
	L85.081,30.522L85.081,30.522z M94.272,30.235c0-0.16,0.068-0.176,0.072-0.179v0.287C94.284,30.3,94.272,30.337,94.272,30.235
	L94.272,30.235z M85.045,28.763l0.037,1.363C85.003,29.977,85.045,28.936,85.045,28.763z M94.308,29.912l0.011,0.011
	C94.318,29.922,94.305,29.915,94.308,29.912z M85.691,28.296l0.036,0.718c0.017,0.228-0.026,0.528,0.008,0.746
	c0.059,0.375,0.081,1.185,0.163,1.739l0.131,0.982c0.042,0.242,0.058,0.413,0.1,0.654c0.027,0.154,0.131,0.367,0.172,0.546
	c-0.186-0.015-0.207-0.111-0.245-0.258c-0.064-0.248-0.214-0.932-0.366-1.106c0.004,0.162,0.071,0.537,0.107,0.683
	c0.085,0.341,0.221,0.554,0.144,0.646c0.052,0.024-0.065,0.041,0.108,0c0.016,0.196,0.092,0.448,0.215,0.539
	c-0.015-0.182-0.093-0.249-0.108-0.431c0.308,0.007,0.171,0.15,0.359,0.431c0.26,0,0.36,0.037,0.61,0.036
	c0.435-0.002,0.413,0.034,0.609,0.037c0.1,0.002,0.227,0.004,0.326,0c0.159-0.006,0.126-0.033,0.285-0.039l2.838-0.322
	c0.012-0.143,0.059-0.181,0.103-0.292c0.156-0.392,0.185-0.424,0.26-0.889l0.319-2.768c0.033-0.47,0.107-0.901,0.107-1.436
	c0-0.741,0.018-1.047-0.036-1.759c-0.01-0.135,0.011-0.296,0-0.431l-0.2-1.81c-0.084-0.483-0.145-0.903-0.252-1.364l-0.338-1.278
	c-0.452,0-0.369-0.029-0.573-0.037l-1.653-0.07c-0.279,0-0.443,0.038-0.682,0.036c-0.234-0.002-0.419,0.013-0.644,0.038
	c-0.119,0.013-0.149,0.035-0.326,0.033c-0.365-0.003-0.545,0.117-0.862,0.144c-0.11,0.472-0.21,0.961-0.291,1.468
	c-0.039,0.248-0.079,0.498-0.125,0.773C85.832,25.221,85.691,27.232,85.691,28.296L85.691,28.296z M85.045,28.512h0.036v0.144
	h-0.036V28.512z M94.416,27.686c0.037-0.037,0.13,0.052,0.041,0.019C94.456,27.705,94.356,27.746,94.416,27.686z M83.178,26.896
	c0.064-0.121,0.003-0.067,0.108-0.144C83.27,26.944,83.311,26.836,83.178,26.896z M83.322,26.465h-0.036
	c0-0.206,0.036-0.273,0.036-0.503C83.448,26.053,83.322,26.219,83.322,26.465z M83.358,25.819h0.036l-0.03,0.042L83.358,25.819z
	 M83.352,25.777l-0.03,0.042h0.036L83.352,25.777z M94.308,25.675h0.036v0.108h-0.036V25.675z M83.358,25.603l0.011,0.011
	C83.368,25.613,83.354,25.607,83.358,25.603z M85.009,25.46h-0.072c0.029-0.127,0.036-0.118,0.036-0.287h0.072
	C85.034,25.311,85.009,25.288,85.009,25.46z M83.573,24.203c0-0.09,0.057-0.008,0.022,0C83.595,24.203,83.573,24.305,83.573,24.203z
	 M82.568,23.521c0-0.09,0.057-0.008,0.022,0C82.589,23.521,82.568,23.622,82.568,23.521z M95.888,23.413c0-0.09,0.057-0.008,0.022,0
	C95.91,23.413,95.888,23.515,95.888,23.413z M95.852,23.198c0-0.09,0.057-0.008,0.022,0C95.874,23.198,95.852,23.299,95.852,23.198z
	 M82.64,23.054h0.036v0.108H82.64V23.054z M91.58,22.803l0.011,0.011C91.59,22.813,91.576,22.806,91.58,22.803z M91.508,22.587
	c0-0.09,0.057-0.008,0.022,0C91.529,22.588,91.508,22.689,91.508,22.587z M82.783,22.444c0-0.09,0.057-0.008,0.022,0
	C82.805,22.444,82.783,22.545,82.783,22.444z M85.476,22.408v0.036l-0.042-0.03L85.476,22.408z M85.496,22.331l-0.02,0.077
	L85.496,22.331z M91.364,22.085c0.024,0.027,0.024,0.01,0.047,0.061c0.033,0.073,0.009,0.017,0.025,0.083
	C91.326,22.148,91.378,22.252,91.364,22.085L91.364,22.085z M91.328,22.013l0.036,0.072L91.328,22.013z M91.292,22.013l0.03-0.042
	l0.006,0.042H91.292z M84.148,20.218c0-0.09,0.057-0.008,0.022,0C84.169,20.218,84.148,20.319,84.148,20.218z M94.559,19.895
	c0-0.09,0.057-0.008,0.022,0C94.581,19.895,94.559,19.996,94.559,19.895z M84.255,20.002v-0.144h0.144v0.072
	C84.324,19.951,84.3,19.958,84.255,20.002L84.255,20.002z M83.896,21.008l0.251-1.364c-0.187,0.137-0.389,1.198-0.363,1.33
	c0.148,0.757,0.071,0.715-0.07,1.432c-0.049,0.247-0.097,0.486-0.15,0.748c-0.09,0.45-0.207,1.046-0.207,1.588
	c0,0.417,0.012,0.137,0.072,0.359c0.105-0.077,0.131-0.565,0.144-0.718c-0.081-0.033-0.089,0.022-0.075-0.177
	c0.012-0.175,0.097-0.291,0.039-0.541c0.025-0.037,0.026-0.042,0.06-0.086c0.133-0.171,0.001-0.049,0.069-0.248
	c0.025-0.073,0.064-0.098,0.08-0.174c0.043-0.212-0.069-0.449,0.095-0.802c0.102-0.218,0.025-0.125,0.083-0.276
	c0.173-0.448,0.087-0.343,0.158-0.847c0.004-0.031,0.023-0.149,0.036-0.215c0.011-0.058,0.043-0.138,0.056-0.195
	c0.061-0.259,0.027-0.197,0.008-0.423L83.896,21.008L83.896,21.008z M84.291,19.679c0.025-0.105-0.005-0.052,0.072-0.108
	C84.329,19.715,84.293,19.675,84.291,19.679z M84.076,18.064c0,0.275-0.025,0.423-0.251,0.574c0.07,0.104,0.073,0.048,0.108,0.179
	c-0.105,0.025-0.052-0.005-0.108,0.072c0.142,0.012,0.168,0.036,0.359,0.036c-0.051,0.192-0.236,0.239-0.395,0.323
	c0.051,0.22,0.085,0.182,0.036,0.395l0.115,0.1c-0.043,0.158-0.112,0.344-0.115,0.51c-0.173-0.014-0.166-0.071-0.323-0.108
	c0-0.18-0.032-0.161-0.036-0.323h-0.072c-0.007,0.302-0.15,0.673-0.223,0.962l-0.179,0.718c-0.033,0.138,0.001,0.148-0.101,0.222
	c-0.066-0.159,0.215-1.116,0.215-1.328c0-0.109-0.076-0.1-0.07-0.248c0.006-0.144,0.039-0.333-0.002-0.506
	c-0.068,0.078-0.123,0.3-0.157,0.417c-0.063,0.217-0.004,0.295-0.274,0.301v-0.287l-0.138-0.114l-0.336,1.292
	c-0.034,0.133-0.07,0.278-0.108,0.431l-0.409,1.781l-0.409,3.935c0,0.207,0.043,0.266,0.039,0.431
	c-0.004,0.145-0.023,0.111-0.036,0.218c-0.034,0.291-0.001,0.603-0.003,0.895l0.064,1.228c0.03,0.194-0.012,0.441,0.01,0.636
	l0.033,0.613c0.01,0.135,0.034,0.116,0.037,0.287c0.007,0.427,0.111,1.044,0.188,1.428c0.079,0.397,0.236,1.16,0.41,1.529
	l0.164,0.303c0.028,0.073,0.023,0.049,0.062,0.117c0.087,0.149,0.08,0.299,0.167,0.479c0.104,0.212,0.416,0.525,0.617,0.675
	c0.153,0.115,0.218,0.171,0.401,0.209c0.003,0.141-0.01,0.084,0.036,0.179l0.862-0.108c0.097,0,0.099,0.017,0.179,0.036
	c-0.06,0.114-0.106,0.34-0.201,0.409c-0.045,0.033-0.103,0.045-0.158,0.058v0.072c0.108,0.029,0.079,0,0.108,0.108
	c-0.199,0-0.213,0.036-0.395,0.036l0.041,0.214c0.146-0.072,0.109-0.001,0.21,0.073c0.202-0.017,0.06-0.033,0.265,0.02
	c0.118,0.031,0.219,0.051,0.345,0.051c-0.016,0.191-0.14,0.331-0.18,0.503c0.169,0.004,0.399,0.074,0.547,0.099
	c0.119,0.02,0.172,0.022,0.277,0.046c0.095,0.022,0.123,0.079,0.209,0.085c0.093,0.007,0.156-0.053,0.267,0.013
	c0.107,0.064,0.015,0.103,0.205,0.118c0.096,0.008,0.223-0.016,0.319,0.004c0.118,0.025,0.07,0.061,0.256,0.067
	c0.106,0.004,0.211-0.01,0.317,0.006c0.048,0.007,0.218,0.05,0.266,0.057c0.207,0.031,0.425-0.017,0.631,0.015
	c0.107,0.017,0.135,0.025,0.296,0.027c0.17,0.002,0.151,0.027,0.286,0.037l0.935-0.035c0.159-0.006,0.126-0.032,0.285-0.039
	l2.35-0.235c0.863-0.149,0.858-0.125,1.241-0.697c-0.253,0.021-0.501,0.194-0.754,0.215c0.111-0.152,0.396-0.18,0.562-0.263
	c0.08-0.04,0.2-0.087,0.255-0.141c0.059-0.058,0.131-0.187,0.152-0.278c-0.177,0.041-0.46,0.139-0.646,0.144
	c0.006-0.006,0.016-0.023,0.019-0.017l0.087-0.057c0.042-0.02,0.099-0.037,0.158-0.057c0.118-0.039,0.184-0.075,0.31-0.085
	c-0.015-0.169,0.053-0.088-0.144-0.072c0.178-0.243,0.257-0.098,0.322-0.539c0.033-0.228,0.05-0.143,0.152-0.279
	c0.076-0.101,0.068-0.193,0.141-0.29c0.214-0.284,0.374-0.886,0.462-1.262c0.135,0.099-0.022,0.369-0.036,0.539
	c0.136-0.036,0.091-0.07,0.251-0.108c-0.047,0.203-0.132,0.414-0.202,0.624c-0.148,0.442-0.377,0.704,0.058,0.74
	c0.082-0.122,0.182-0.313,0.292-0.383l0.044-0.034c0.092-0.077,0.175-0.086,0.31-0.086c0.015-0.182,0.698-2.433,0.754-2.549h-0.179
	c0-0.178,0.104-0.296,0.251-0.395c-0.078-0.333-0.036-0.286,0.043-0.603c0.201-0.807,0.251-1.182,0.403-1.967l0.093-0.696
	c0.006-0.18,0.017-0.232,0.032-0.363l0.074-1.936c0-0.519-0.012-1.058-0.069-1.547c-0.012-0.101,0.005-0.22-0.003-0.321
	c-0.01-0.135-0.036-0.117-0.037-0.286c-0.001-0.12,0.008-0.193-0.013-0.31c-0.023-0.129-0.019-0.162-0.02-0.303l-0.094-0.875
	c-0.182-1.084-0.349-2.159-0.783-3.167l-0.247-0.399c-0.507-0.662-0.563-0.435-0.908-0.708c-0.137-0.108,0.031-0.092-0.267-0.092
	c0.14-0.208,0.246-0.233-0.028-0.438c-0.122-0.091-0.217-0.066-0.295-0.172c0.115,0,0.196,0,0.288-0.071
	c0.005-0.004,0.015-0.014,0.018-0.017c0.004-0.003,0.011-0.013,0.017-0.019c-0.043-0.16-0.199-0.225-0.338-0.309
	c-0.034-0.021-0.066-0.034-0.093-0.051c-0.116-0.072-0.18-0.146-0.324-0.179l0.144-0.179c-0.312-0.007-0.69-0.211-0.998-0.294
	c-1.899-0.512-4.494-0.639-6.467-0.242c-0.15,0.03-0.338,0.069-0.478,0.096l-0.687,0.21c-0.106,0.036-0.137,0.053-0.232,0.091
	C84.379,17.942,84.202,17.997,84.076,18.064L84.076,18.064z"/>
<path style="fill-rule:evenodd;clip-rule:evenodd;fill:#94A3B8;" d="M30.76,38.816v0.036l-0.042-0.03L30.76,38.816z M30.801,38.81
	l-0.042-0.03v0.036L30.801,38.81z M30.975,38.672c0.037-0.037,0.13,0.052,0.041,0.019C31.015,38.691,30.915,38.732,30.975,38.672z
	 M33.56,35.369v0.036l-0.042-0.03L33.56,35.369z M33.596,35.333l-0.036,0.036L33.596,35.333z M33.596,35.333
	c0.034-0.05,0.316-0.366,0.359-0.395c-0.025,0.094-0.072,0.156-0.134,0.225C33.748,35.243,33.708,35.303,33.596,35.333
	L33.596,35.333z M33.955,34.938l0.042-0.006l-0.042-0.03V34.938z M34.314,34.256l0.011,0.011
	C34.324,34.266,34.31,34.259,34.314,34.256z M34.494,34.076v0.036l-0.042-0.03L34.494,34.076z M34.494,34.076
	c0.135-0.09,0.231-0.213,0.35-0.332c0.145-0.145,0.174-0.185,0.289-0.357c0.097-0.145,0.169-0.271,0.266-0.417
	c0.074-0.111,0.211-0.28,0.244-0.402l-0.604,0.724C34.897,33.472,34.545,33.857,34.494,34.076L34.494,34.076z M35.642,32.568v-0.036
	l0.042,0.03L35.642,32.568z M38.299,28.081h-0.036c0-0.216-0.017-0.108,0.072-0.144C38.31,27.988,38.299,27.997,38.299,28.081
	L38.299,28.081z M35.176,27.219h0.108v0.036h-0.108V27.219z M35.499,26.68l0.011,0.011C35.509,26.69,35.495,26.684,35.499,26.68z
	 M34.35,26.68c0.385,0,0.629-0.061,0.827-0.073c0.135-0.008,0.171,0.028,0.286,0.037v0.072c-0.521,0.043-0.163,0.108-0.829,0.039
	C34.438,26.735,34.444,26.808,34.35,26.68L34.35,26.68z M34.709,26.214c0.064-0.087,0.135-0.105,0.286-0.109
	c0.127-0.004,0.267,0.002,0.396,0.002v0.072c-0.179,0-0.16,0.031-0.322,0.037C34.955,26.22,34.825,26.214,34.709,26.214
	L34.709,26.214z M35.858,26.07c0,0.211-0.193,0.122-0.287,0.072c0.048-0.071,0.035-0.083,0.139-0.118
	C35.751,26.009,35.858,25.977,35.858,26.07L35.858,26.07z M28.426,22.049c-0.004,0.198-0.181,0.465-0.294,0.64
	c-0.016,0.024-0.04,0.061-0.058,0.086l-0.08,0.1C28.016,22.62,28.272,22.162,28.426,22.049L28.426,22.049z M28.468,22.043
	l-0.042-0.03v0.036L28.468,22.043z M29.682,21.798l-0.222,0.281c-0.37,0.489-0.721,1.246-1.049,1.787
	c-0.128,0.212-0.183,0.229-0.135,0.276C28.497,24.363,29.561,22.318,29.682,21.798L29.682,21.798z M27.169,21.51h0.144v0.036h-0.144
	V21.51z M26.882,21.439c0.106,0.025,0.11,0.036,0.251,0.036v0.036h-0.251V21.439L26.882,21.439z M27.097,17.956l0.826,0.036
	c0.126,0.009,0.111,0.036,0.251,0.036v0.036c-0.291,0-0.676,0.058-1.077-0.036V17.956L27.097,17.956z M31.442,16.735
	c-0.097,0-0.099-0.017-0.179-0.036c0-0.422,0.222-0.758-0.22-0.929c-0.071-0.028-0.087-0.024-0.147-0.069
	c-0.23-0.172-0.104-0.123-0.429-0.013c-0.257,0.087-0.218,0.276-0.28,0.51c-0.053,0.198-0.075,0.133-0.173,0.258
	c-0.164,0.21-0.168,0.707-0.232,0.989c-0.024,0.106-0.072,0.211-0.1,0.331c-0.29,0-1.183-0.007-1.422-0.05
	c-0.234-0.042-0.457-0.003-0.697-0.021c-0.137-0.01-0.141-0.036-0.323-0.036c-0.544-0.001-1.049-0.185-1.578-0.289
	c-0.208-0.041-0.305-0.202-0.511-0.151c-0.181,0.044-0.443,0.117-0.64,0.117l0.036,0.215c-0.095,0.05-0.156,0.093-0.251,0.144
	c0,0.583,0.255,0.977,0.539,1.4c-0.126,0.254,0.024,0.656,0.144,0.861c0.04,0.068,0.088,0.148,0.135,0.224l0.28,0.402
	c0.142,0.209,0.282,0.443,0.454,0.623c0.379,0.4,1.029,0.505,1.572,0.546c0.213,0.016,0.46,0.029,0.645,0.073
	c-0.018,0.217-0.27,0.571-0.388,0.761c-0.446,0.72-0.884,1.454-1.371,2.148c-0.049,0.07-0.067,0.082-0.123,0.164
	c-0.348,0.515-0.733,1.012-1.162,1.459c-0.235,0.245-0.1,0.198-0.425,0.436c-0.173,0.127-0.271,0.337-0.445,0.453l0.323,0.359
	c0.092,0,0.199-0.108,0.359-0.108c0.207,0,0.192,0.147,0.4,0.08c0.178-0.057,0.223-0.149,0.39-0.188
	c0,0.419-0.575,0.554-0.442,0.687c0.044,0.045,0.15-0.051,0.263-0.077c-0.075,0.112-0.181,0.219-0.251,0.323
	c0.062,0.093,0.161,0.137,0.251,0.215c0.239-0.126,0.374-0.259,0.718-0.287c-0.062,0.232-0.333,0.271-0.395,0.503
	c0.157,0.013,0.176,0.01,0.18,0.179c0.138-0.032,0.238-0.116,0.359-0.179c0.231,0.155,0.374,0.373,0.717,0.361
	c0.329-0.012,0.611-0.109,1.114-0.109c0.101,0,0.066,0.016,0.108,0.072c-0.327,0-0.547,0.016-0.61,0.287l0.144,0.036
	c-0.163,0.038-0.34,0.07-0.503,0.108c0,0.425-0.019,0.303,0.345,0.409c0.289,0.084,0.223,0.038,0.51-0.057l2.375-0.21
	c0.148-0.006,0.272,0.013,0.418-0.013c0.712-0.128,1.901,0.074,2.556-0.029c0.276-0.044,0.488-0.02,0.69,0.115
	c-0.401,0.599-0.776,1.194-1.211,1.769l-0.683,0.825c-1.021,1.21-2.27,2.31-3.647,3.102c-0.168,0.097-0.266,0.233-0.419,0.335
	c0.055,0.079,0.006,0.045,0.108,0.072l-0.042,0.286c0.128,0.029,0.191,0.077,0.329,0.109c-0.054,0.232-0.212,0.436-0.323,0.646
	c0.41,0.095,0.268,0.178,0.586,0.012c0.176-0.092,0.371-0.218,0.563-0.263c-0.055,0.205-0.303,0.307-0.422,0.476
	c-0.11,0.155,0.037-0.025-0.034,0.089c-0.064,0.104-0.104-0.002-0.155,0.189c0.099-0.023,0.188-0.049,0.287-0.072
	c-0.082,0.122-0.215,0.223-0.251,0.359c0.523,0.122,0.777-0.176,1.257-0.287c-0.242,0.362-0.797,0.497-1.041,0.862
	c0.458,0.038,0.378,0.171,0.876-0.165l1.96-1.272c0.631-0.443,0.718-0.655,0.875-0.776c0.075-0.058,0.187-0.133,0.274-0.157
	c-0.12,0.226-0.332,0.385-0.511,0.566c-0.091,0.091-0.129,0.1-0.216,0.179c-0.087,0.079-0.1,0.09-0.196,0.163l-1.066,0.801
	c-0.164,0.124-0.904,0.747-0.992,0.875c-0.044,0.065-0.098,0.183-0.107,0.288l0.215-0.036c-0.028,0.122-0.076,0.185-0.108,0.323
	c0.218,0,0.262-0.036,0.467-0.036c0.022,0.094,0.033,0.106,0.072,0.179c0.079-0.018,0.146-0.026,0.238-0.049
	c0.155-0.039,0.607-0.292,0.76-0.389c0.069-0.044,0.121-0.064,0.186-0.101c0.117-0.068,0.234-0.143,0.353-0.222l0.824-0.612
	c0.06-0.05,0.085-0.092,0.146-0.141l0.488-0.41c0.085-0.063,0.083-0.056,0.156-0.131l1.49-1.418c0.076-0.077,0.068-0.084,0.127-0.16
	l0.674-0.798c0.09-0.118,0.162-0.208,0.245-0.33c0.477-0.706,0.94-1.425,1.338-2.181c0.654-1.24,1.851-3.385,0.774-4.629
	c-0.152-0.175-0.255-0.452-0.511-0.458c0.012,0.142,0.06,0.217,0.072,0.359c-0.181-0.121-0.191-0.198-0.251-0.431
	c-0.113-0.438-0.634-1.001-1.113-1.041c-0.226,0.337-0.341,0.354-0.398-0.105c-0.026-0.21-0.087-0.229-0.176-0.362l-0.152,0.136
	c-0.442-0.277-0.407-0.281-1.033-0.279c-0.273,0.001-0.391-0.037-0.646-0.036l-2.693,0c-0.352,0-0.351,0.042-0.574-0.108
	c0.55-0.822,0.988-1.609,1.412-2.502c0.145-0.306,0.307-0.616,0.383-0.945c1.041,0,2.082-0.001,3.124,0
	c0.305,0,0.457-0.037,0.754-0.036l1.114-0.07c0.271-0.002,0.573-0.22,0.573-0.612c-0.205-0.005-0.298-0.072-0.539-0.072
	c-0.374,0-0.842-0.027-1.193,0.028c-0.244,0.038-0.388-0.028-0.567-0.028v-0.036c0.117,0,0.119-0.035,0.286-0.037
	c0.261-0.004,0.647-0.009,0.913-0.056c0.276-0.049,0.618-0.016,0.877-0.092c0.025-0.007,0.074-0.019,0.106-0.038
	c0.066-0.04,0.052-0.022,0.08-0.099c-0.228,0-0.455-0.001-0.683,0c-0.236,0.001-0.375-0.037-0.646-0.036c-0.227,0-0.455,0-0.682,0
	c-0.165,0-0.348,0.022-0.506-0.033c-0.098-0.034-0.049,0.001-0.105-0.075c0.193-0.016,0.356-0.1,0.574-0.108
	c0.359-0.014,1.283-0.079,1.558-0.165c0.139-0.044,0.126-0.074,0.273-0.086v-0.144c-0.206,0-0.272-0.036-0.503-0.036
	c0.173-0.151,0.516-0.216,0.646-0.395c-0.576-0.134-1.128,0.008-1.472-0.072c0.105-0.067,0.312-0.089,0.431-0.108
	c0.306-0.048,0.658-0.048,0.93-0.147c0.12-0.043,0.289-0.112,0.362-0.212c-0.183-0.088-0.411-0.084-0.622-0.168
	c-0.099-0.039-0.088-0.057-0.204-0.084v-0.072c0.138-0.012,0.292-0.052,0.359-0.144c-0.24-0.005-0.427-0.108-0.682-0.108
	c-0.149,0-0.282,0.082-0.395-0.072c0.222-0.052,0.366-0.167,0.574-0.215c-0.064-0.134-0.062-0.21-0.193-0.274
	c-0.008-0.004-0.018-0.007-0.026-0.01c-0.066-0.032-0.031-0.012-0.069-0.039c0.137-0.032,0.15-0.076,0.287-0.108
	c-0.156-0.232-0.38-0.106-0.682-0.107l-1.651,0.072c-0.122,0.011-0.233,0.045-0.354,0.077c-0.436,0.116-0.233,0.101-0.725,0.101
	v-0.754c-0.171,0.197-0.03,0.592-0.251,0.754c-0.069-0.295-0.144-0.276-0.144-0.682v-1.005c-0.117,0.01-0.111-0.003-0.158,0.093
	c-0.024,0.048-0.045,0.143-0.057,0.194h-0.072c-0.123-0.529,0.047-0.758-0.503-0.467c-0.067-0.1-0.121-0.176-0.18-0.287h-0.215
	c-0.223-0.421-0.219-0.178-0.421,0.046c-0.071,0.079-0.215,0.182-0.259,0.243C31.734,16.149,31.667,16.735,31.442,16.735
	L31.442,16.735z M58.62,37.918l0.011,0.011C58.63,37.928,58.617,37.922,58.62,37.918z M57.22,37.667l-0.036,0.072L57.22,37.667z
	 M58.405,37.739c0.027-0.116,0.061-0.158,0.072-0.287C58.61,37.544,58.571,37.69,58.405,37.739z M57.22,37.667
	c0.007-0.083,0.01-0.094,0.033-0.146c0.003-0.007,0.009-0.016,0.013-0.023l0.062-0.082L57.22,37.667z M57.364,37.344l-0.036,0.072
	L57.364,37.344z M57.4,37.272l-0.036,0.072L57.4,37.272z M57.419,37.195l-0.02,0.077L57.419,37.195z M57.507,37.2
	c0.001-0.012,0.039-0.008,0.043-0.007c0.008,0.003,0.062-0.081,0.016,0.009c0,0-0.005,0.006-0.006,0.006
	C57.506,37.223,57.499,37.264,57.507,37.2L57.507,37.2z M57.435,37.128l0.011,0.011C57.445,37.138,57.432,37.132,57.435,37.128z
	 M57.579,37.092l0.011,0.011C57.589,37.102,57.575,37.096,57.579,37.092z M57.83,36.59v0.036l-0.042-0.03L57.83,36.59z M57.83,36.59
	c0.086-0.099,0.108-0.132,0.108-0.287h-0.036C57.902,36.458,57.845,36.413,57.83,36.59z M57.112,35.01
	c-0.011,0.133-0.265,0.838-0.431,0.898l0.203-0.444C56.98,35.27,57.028,35.107,57.112,35.01L57.112,35.01z M57.148,34.938
	l-0.036,0.072L57.148,34.938z M57.168,34.861l-0.02,0.077L57.168,34.861z M57.22,34.759l-0.02,0.077L57.22,34.759z M57.24,34.681
	l-0.02,0.077L57.24,34.681z M57.256,34.615l0.011,0.011C57.266,34.625,57.252,34.619,57.256,34.615z M57.292,34.543l0.011,0.011
	C57.302,34.553,57.288,34.547,57.292,34.543z M57.328,34.435l0.011,0.011C57.338,34.445,57.324,34.439,57.328,34.435z M57.4,34.364
	v0.036l-0.042-0.03L57.4,34.364z M57.513,34.154c0.029-0.081,0.057-0.147,0.066-0.257c-0.023,0.026-0.022,0.014-0.047,0.06
	L57.4,34.364L57.513,34.154L57.513,34.154z M60.128,33.825l0.011,0.011C60.138,33.835,60.125,33.829,60.128,33.825z M57.579,33.789
	L57.59,33.8C57.589,33.799,57.575,33.793,57.579,33.789z M58.513,31.527h0.036v0.108h-0.036V31.527z M58.584,31.312
	c0-0.09,0.057-0.008,0.022,0C58.606,31.312,58.584,31.413,58.584,31.312z M58.669,31.067l-0.013-0.294l0.142,0.04L58.669,31.067
	L58.669,31.067z M58.872,30.127l0.011,0.011C58.882,30.137,58.868,30.131,58.872,30.127z M58.908,29.912c0-0.09,0.057-0.008,0.022,0
	C58.929,29.912,58.908,30.013,58.908,29.912z M59.195,29.014c-0.101-0.075-0.131-0.062-0.062-0.17
	c0.044-0.068,0.017-0.052,0.098-0.081C59.18,28.869,59.195,28.863,59.195,29.014z M59.267,28.44l0.011,0.011
	C59.277,28.45,59.263,28.443,59.267,28.44z M59.231,28.368l0.011,0.011C59.241,28.378,59.227,28.371,59.231,28.368z M58.19,21.403
	h-0.036l0.03-0.042L58.19,21.403z M57.328,18.674l0.011,0.011C57.338,18.684,57.324,18.678,57.328,18.674z M62.749,18.602
	c0.037-0.037,0.13,0.052,0.041,0.019C62.79,18.621,62.689,18.662,62.749,18.602z M56.43,18.315l0.011,0.011
	C56.44,18.325,56.427,18.318,56.43,18.315z M58.19,21.403c0.684,0.362-0.069,0.395,1.293,0.395c0,0.778-0.004,1.556,0,2.334
	c0.001,0.24-0.038,0.311-0.036,0.538c0.002,0.199-0.043,1.022-0.126,1.205c-0.06,0.132-0.032,0.124,0.006,0.355
	c0.029,0.174-0.062,0.269-0.109,0.437c-0.051,0.183-0.089,0.713-0.165,1.019c-0.04,0.162-0.077,0.331-0.111,0.5
	c-0.064,0.326-0.128,0.643-0.198,0.987c-0.062,0.311-0.127,0.473-0.101,0.718l-0.803,2.725c-0.121,0.314,0.144-0.091-0.131,0.407
	c-0.081,0.147-0.023,0.068-0.027,0.191c-0.004,0.106-0.112,0.33-0.158,0.447c-0.066,0.166-0.106,0.235-0.173,0.401l-1.171,2.671
	c-0.05,0.106-0.087,0.104-0.035,0.215c0.107-0.079,0.293-0.51,0.383-0.694c0.076-0.156,0.055-0.167,0.156-0.203l-0.754,1.723
	c0.354-0.029,0.314-0.28,0.539-0.431c-0.032,0.135-0.097,0.3-0.108,0.431c0.095-0.045,0.323-0.129,0.323-0.431h0.036
	c0,0.206-0.044,0.166-0.021,0.381c0.017,0.154-0.048,0.137-0.086,0.301c0.147,0.039,0.154,0.134,0.323,0.18l0.251-0.467
	c-0.014,0.173-0.057,0.114-0.072,0.287c0.115-0.084,0.217-0.282,0.251-0.431c0.148,0.233,0.08,0.276,0.036,0.467
	c0.191-0.128,0.26-0.449,0.431-0.574c0,0.199-0.032,0.239-0.036,0.395l0.033-0.038c0.005-0.006,0.025-0.033,0.031-0.041l0.079-0.1
	c-0.024,0.285-0.216,0.699-0.287,1.005c0.281,0,0.288-0.162,0.416-0.373l0.254-0.464c0.054-0.086,0.006-0.012,0.048-0.06
	c0,0.208-0.023,0.277-0.036,0.431c0.136-0.036,0.104-0.069,0.215-0.144c-0.011,0.137-0.185,0.69-0.144,0.79
	c0.08-0.029,0.036,0.008,0.085-0.058c0.034-0.046,0.015-0.037,0.046-0.097c0.047-0.089,0.058-0.085,0.108-0.18l0.227-0.383
	c0.069,0.296,0,0.271,0,0.539h0.179c0.027,0.116,0.061,0.158,0.072,0.287c0.2-0.134,0.072,0.008,0.285,0
	c0.267-0.01,0.491-0.541,0.684-0.682c0,0.118-0.036,0.355-0.072,0.431c0.167-0.045,0.237-0.295,0.311-0.443
	c0.091-0.182,0.148-0.332,0.24-0.514c0.046-0.092,0.073-0.147,0.119-0.24l0.359-0.79c0.042-0.091,0.067-0.158,0.105-0.254
	c0.254-0.643,0.547-1.233,0.764-1.893c0.415-1.258,0.718-2.122,1.053-3.471l0.558-2.457c0.028-0.136,0.029-0.166,0.049-0.31
	c0.014-0.101,0.021-0.227,0.039-0.356c0.01-0.068,0.045-0.217,0.062-0.297l0.291-3.12c0.01-0.241-0.001-0.511-0.001-0.755
	c-0.001-0.29,0.037-0.428,0.036-0.718c-0.001-0.374,0.058-0.727,0.008-1.049c-0.02-0.125-0.008-0.26-0.008-0.387
	c0.002-0.35-0.1-1.405-0.174-1.695c-0.072-0.282,0.025-0.234-0.139-0.578c-0.067-0.142-0.047-0.161-0.047-0.348
	c-0.068-0.046-0.055-0.041-0.117-0.099c-0.161-0.151-0.278-0.159-0.278-0.44c-0.156-0.036-0.203-0.107-0.359-0.144
	c0.012,0.139,0.032,0.094,0.036,0.251c-0.099-0.066-0.13-0.095-0.287-0.108c0-0.27-0.084-0.251-0.359-0.251
	c0-0.604-0.432-0.682-0.948-0.589c-0.346,0.062-4.184,0.014-4.725,0.014l-0.077,0.25c-0.175,0.002-0.181,0.006-0.318,0.038v0.108
	c0.174-0.015,0.389-0.127,0.395,0.144c-0.349,0-0.323-0.134-0.323,0.395h0.467c-0.035,0.098,0.002,0.074-0.144,0.108
	c0,0.182-0.024,0.185-0.036,0.323c0.059,0.031,0.102,0.042,0.151,0.064c0.129,0.058,0.088,0.006,0.1,0.151
	c0.165-0.055-0.05-0.065,0.174-0.074c0.101-0.004,0.224,0.002,0.328,0.002c-0.015,0.179-0.16,0.223-0.251,0.359
	c0.069,0.016,0.121,0.03,0.194,0.057c0.138,0.051,0.08,0.054,0.201,0.086c-0.069,0.095-0.116,0.079-0.254,0.105
	c-0.127,0.024-0.206,0.048-0.321,0.074c0.046,0.095,0.033,0.038,0.036,0.179h1.293c-0.018,0.211-0.05,0.126-0.248,0.148
	c-0.213,0.023-0.135,0.088-0.327-0.04c-0.124,0.186-0.23,0.119-0.431,0.215c0.032,0.068,0.09,0.209,0.108,0.287
	c0.017,0,0.143-0.004,0.147-0.004c0.171,0.026,0.06-0.034,0.104,0.076c0.138-0.012,0.141-0.036,0.323-0.036
	c-0.041,0.155-0.074,0.124-0.215,0.18c-0.053,0.021-0.091,0.031-0.159,0.056c-0.155,0.056-0.039-0.035-0.128,0.087
	c0.601,0.14,0.197,0.108,0.502,0.288c0.069,0.041,0.21,0.123,0.288,0.143L58.19,21.403L58.19,21.403z M117.502,38.277l-0.036-0.036
	L117.502,38.277z M117.466,38.241h-0.036l0.03-0.042L117.466,38.241z M120.158,37.272h0.036l-0.03,0.042L120.158,37.272z
	 M119.8,36.338c-0.22-0.024-0.038-0.085-0.287-0.144c0.019-0.071-0.024-0.006,0.017-0.056c0.034-0.041,0.003-0.039,0.068-0.015
	c0.003,0.001,0.013,0.006,0.016,0.008L119.8,36.338L119.8,36.338z M118.687,35.513h0.036l-0.03,0.042L118.687,35.513z
	 M118.681,35.471l-0.03,0.042h0.036L118.681,35.471z M118.615,35.405l0.011,0.011C118.625,35.415,118.611,35.408,118.615,35.405z
	 M115.132,35.082h0.036l-0.03,0.042L115.132,35.082z M115.126,35.04l-0.03,0.042h0.036L115.126,35.04z M118.399,34.938h0.036
	l-0.03,0.042L118.399,34.938z M118.322,34.918l0.077,0.02L118.322,34.918z M114.522,32.066c0.004-0.004,0.011,0.006,0.011,0.011
	L114.522,32.066z M115.671,31.563l0.011,0.011C115.681,31.573,115.667,31.567,115.671,31.563z M114.342,31.384l0.041,0.07
	L114.342,31.384z M114.342,31.384c-0.024-0.038-0.021-0.001-0.033-0.074c-0.006-0.038-0.003-0.101-0.003-0.141h0.036V31.384z
	 M114.091,30.271c0.023,0.027,0.027,0.008,0.048,0.059c0.035,0.084,0.015,0.019,0.023,0.12c-0.023-0.027-0.027-0.008-0.048-0.059
	C114.077,30.303,114.103,30.368,114.091,30.271z M113.875,29.266c0.139,0.093,0.113,0.158,0.144,0.359
	c0.025,0.164,0.072,0.288,0.072,0.467c-0.124-0.091-0.032,0.027-0.122-0.381C113.934,29.551,113.896,29.427,113.875,29.266
	L113.875,29.266z M113.804,28.547h0.036c0,0.239,0.089,0.427,0.108,0.646C113.777,28.998,113.804,28.804,113.804,28.547z
	 M113.696,28.188c0.107,0.04,0.056-0.077,0.072,0.108l-0.033-0.038C113.709,28.218,113.718,28.23,113.696,28.188z M116.425,27.973
	l0.011,0.011C116.435,27.983,116.421,27.977,116.425,27.973z M114.378,23.521l0.036-0.216c0.02-0.053,0.019-0.044,0.036-0.071
	l0.215,2.047c0.081,1.053,0.371,2.997,0.561,4.035c0.063,0.347,0.123,0.654,0.185,0.964l0.188,0.961
	c-0.125-0.091-0.115-0.197-0.166-0.372c-0.467-1.582-0.532-2.671-0.776-4.25l-0.135-1.517
	C114.526,24.705,114.378,23.729,114.378,23.521L114.378,23.521z M114.342,22.049h0.036v0.933h-0.036V22.049z M114.342,21.834
	l0.011,0.011C114.352,21.844,114.339,21.837,114.342,21.834z M117.502,38.277c0.001,0.001,0.043,0.043,0.055,0.053
	c0.122,0.107,0.135,0.131,0.268,0.163c0.055-0.082,0.069-0.072,0.072-0.215c0.094,0.069,0.083,0.106,0.157,0.203
	c0.032,0.042,0.155,0.143,0.212,0.14c0.087-0.005,0.126-0.47,0.134-0.558c0.097-0.008,0.098-0.017,0.18-0.036
	c-0.05-0.187-0.034-0.031-0.144-0.179l0.04-0.142l0.139,0.106c-0.067-0.287-0.256-0.419-0.395-0.682h0.179
	c0.15,0.283,0.226,0.467,0.539,0.467v0.072c-0.111-0.009-0.068,0-0.144-0.036l0.04,0.142c0.07-0.038,0.081-0.048,0.175-0.07
	c-0.042,0.114,0.078,0.052-0.108,0.072l0.108,0.108V37.81c0.199,0.046,0.214,0.137,0.395,0.179
	c-0.087-0.165-0.184-0.214-0.275-0.372c-0.04-0.07-0.041-0.073-0.049-0.167c0.38,0.101,0.334,0.395,1.113,0.395
	c-0.015-0.18-0.192-0.282-0.314-0.403c-0.107-0.106-0.245-0.275-0.26-0.458c0.1,0.027,0.49,0.405,0.618,0.531
	c0.115,0.114,0.107,0.079,0.316,0.079c0.032-0.08,0.003-0.019,0.044-0.064l0.108-0.107c0.002-0.001,0.095-0.042,0.099-0.044
	c-0.077-0.105-0.023-0.044-0.144-0.108l-0.108,0.179c-0.197-0.016-0.108-0.031-0.18-0.179c0.106,0.028,0.058,0.015,0.144,0.072
	c-0.03-0.113-0.082-0.161-0.152-0.243c-0.159-0.183-0.475-0.501-0.494-0.727h0.108c0,0.189-0.04,0.176,0.108,0.215
	c-0.008-0.097-0.017-0.098-0.036-0.179c0.249,0.166,0.651,0.832,0.898,0.898c-0.116-0.498-0.44-0.82-0.697-1.242
	c-0.477-0.785-0.474-0.695-0.896-1.546l-0.44-1.068c-0.05-0.128-0.086-0.222-0.127-0.34c-0.509-1.447-0.876-2.667-1.195-4.263
	c-0.163-0.82-0.34-1.664-0.448-2.496c-0.014-0.108-0.016-0.147-0.031-0.221c-0.028-0.143-0.02-0.088-0.056-0.195
	c-0.007-0.021-0.048-0.189-0.049-0.206c-0.012-0.129-0.012-0.057,0.06-0.164c-0.039-0.144-0.05-0.2-0.18-0.287
	c0.15-0.224,0.036-0.525,0.036-0.79c0.001-0.204-0.037-0.247-0.036-0.467c0.001-0.311-0.072-0.608-0.072-0.934
	c0-0.106-0.015-0.155-0.022-0.23c-0.018-0.182,0.031-0.007,0.02-0.199c-0.008-0.134-0.072-0.158-0.07-0.433
	c0.001-0.168,0-0.335,0-0.503c0.46,0,0.906-0.049,1.314-0.122c0.376-0.068,0.789-0.234,0.876-0.56
	c-0.046-0.199-0.137-0.215-0.179-0.395c0.133,0,0.197-0.016,0.293-0.03c0.18-0.027,0.151,0.008,0.189-0.17
	c0.028-0.13,0.007-0.15,0.104-0.219c0.056-0.04,0.178-0.087,0.24-0.12c0-0.543,0.395-0.369,0.395-0.79
	c-0.17-0.036-0.288,0.023-0.467-0.072c0.086-0.117,0.315-0.18,0.467-0.215c-0.036-0.133-0.036-0.046-0.072-0.179
	c0.21-0.049,0.286-0.173,0.467-0.215l-0.145-0.287c0.117-0.028,0.159-0.062,0.288-0.072c0-0.278-0.053-0.389-0.072-0.61
	c-0.146,0-0.379,0.043-0.503,0.072c0.029-0.109,0.029-0.082,0.114-0.137c0.108-0.07,0.066-0.017,0.137-0.114
	c-0.207-0.099-1.267,0.262-1.895,0.1c-0.21-0.054-3.643-0.012-3.835,0.022c-0.161,0.029-0.243,0.015-0.411,0.02
	c-0.195,0.006-0.209,0.07-0.321,0.145c0.048,0.1,0.036,0.07,0.036,0.215h-0.108c-0.002-0.109-0.016-0.131-0.036-0.215
	c-0.097,0.071-0.047,0.057-0.086,0.094c-0.143,0.13-0.158,0.007-0.308,0.267l-0.159,0.236c-0.024,0.06-0.04,0.26-0.058,0.337
	l-0.072-0.215c-0.041,0.175-0.083,0.343-0.107,0.54c-0.024,0.205-0.073,0.394-0.073,0.609c-0.107,0.044-0.125-0.039-0.144,0.179
	c0.055,0.079,0.006,0.045,0.108,0.072v0.108l-0.142,0.04c-0.003,0.49-0.074,0.847-0.073,1.324c0,0.239,0,0.479,0,0.718
	c0,0.284,0.037,0.423,0.036,0.682c-0.002,0.43,0.004,1.709,0.064,2.09l0.045,0.673c0.008,0.67,0.208,1.802,0.289,2.547l0.383,2.133
	c0.077,0.208,0.027,0.068,0.009,0.276c0.085,0.057,0.037,0.043,0.144,0.072c-0.007,0.007-0.021,0.006-0.022,0.019
	c-0.01,0.073-0.089,0.046,0.022,0.089c-0.004,0.162-0.036,0.143-0.036,0.323c0.082,0.019,0.083,0.028,0.18,0.036
	c0,0.317-0.107,0.383,0.179,0.574c-0.105,0.199-0.07,0.261-0.005,0.471c0.516,1.672,0.61,2.137,1.276,3.822
	c0.203,0.513,0.391,0.818,0.675,1.264c0.32,0.502,0.437,0.853,0.998,1.264c0.075,0.055,0.105,0.093,0.18,0.144
	c-0.035-0.131-0.038-0.075-0.108-0.179c0.118,0.032,0.28,0.144,0.313,0.272c0.049,0.192,0.256,0.078,0.37,0.051L117.502,38.277
	L117.502,38.277z M60.308,15.227v-0.036l0.042,0.03L60.308,15.227z M59.159,14.15l-0.036,0.036L59.159,14.15z M59.159,14.15
	c0.027-0.101,0.071-0.162,0.144-0.215v0.431c-0.006-0.006-0.015-0.024-0.017-0.019C59.273,14.382,59.261,14.225,59.159,14.15z
	 M58.154,13.001l-0.02,0.077L58.154,13.001z M58.173,12.924l-0.02,0.077L58.173,12.924z M64.042,11.278v0.036L64,11.284
	L64.042,11.278z M63.898,10.524c0.004-0.17-0.037-0.141,0.108-0.18C63.967,10.49,63.975,10.419,63.898,10.524z M62.211,10.129v0.036
	l-0.042-0.03L62.211,10.129z M61.744,9.016c0.004-0.004,0.011,0.006,0.011,0.011L61.744,9.016z M58.656,13.935
	c0.023,0.027,0.026,0.009,0.048,0.06c0.036,0.083,0.01,0.025,0.028,0.115c0.017,0.085,0.029,0.11,0.032,0.22
	c0.107-0.078,0.145-0.247,0.179-0.395c0.005,0.007,0.012,0.01,0.013,0.023l0.032,0.076c0.015,0.05,0.028,0.071,0.027,0.153
	c-0.001,0.102-0.05,0.188-0.073,0.287h0.108l0.072-0.287c0.055,0.115,0.058,0.327,0.139,0.4c0.056,0.051,0.184-0.003,0.184,0.354
	c0.11-0.029,0.168-0.088,0.251-0.144c0,0.153-0.042,0.339-0.072,0.467c0.074,0.039,0.085,0.05,0.179,0.072
	c0.05-0.104,0.115-0.273,0.144-0.395c0.237,0.02,0.18,0.146,0.18,0.395c0.131-0.035,0.075-0.038,0.179-0.108
	c-0.014,0.168-0.068,0.172-0.072,0.359c0.284-0.327,0.18-0.266,0.18-0.574h0.144l-0.108,0.862c0.087,0.042,0.164,0.061,0.251,0.108
	l0.61-1.041c0.005,0.007,0.013,0.009,0.014,0.021l0.021,0.122l0.25-0.289c0.004-0.005,0.037-0.049,0.046-0.062
	c0.291-0.417,0.397-0.674,0.767-1.172c0.137-0.185,0.246-0.332,0.384-0.514c0.249-0.329,0.488-0.654,0.795-0.929l0.482-0.595
	c0.118-0.149,0.241-0.226,0.258-0.425c-0.188,0.044-0.154,0.091-0.287,0.179c0.049-0.211,0.119-0.27,0.287-0.359
	c-0.053-0.11-0.085-0.213-0.144-0.323c-0.05,0.034-0.133,0.094-0.186,0.137c-0.103,0.083-0.07,0.113-0.209,0.15l0.367-0.387
	c-0.052-0.167-0.063-0.047-0.139-0.272c-0.039-0.115-0.074-0.19-0.084-0.311c-0.201,0.017-0.076,0.049-0.287,0
	c0.21-0.313-0.027,0,0.144-0.323c-0.226,0.06-0.327,0.277-0.503,0.395c0.025-0.108,0.027-0.092,0.079-0.173
	c0.036-0.057,0.057-0.1,0.093-0.158l0.187-0.315c-0.165-0.035-0.158-0.004-0.406,0.097l-0.308,0.124
	c-0.203,0.056-0.03-0.049-0.246,0.148l-0.476,0.421c0.038-0.142,0.677-0.795,0.819-0.976c0.047-0.059,0.3-0.283,0.283-0.429
	c-0.015-0.126-0.142-0.001-0.204,0.04c0.016-0.186,0.067-0.113,0.072-0.323c-0.22-0.051-0.19-0.017-0.359,0.072l0.077-0.25
	c-0.206,0.045-0.386,0.18-0.517,0.313c-0.24,0.243-0.292,0.364-0.494,0.368c0.036-0.137,0.349-0.415,0.452-0.553
	c0.067-0.09,0.106-0.124,0.158-0.201c-0.142,0.033-0.253,0.111-0.395,0.144V8.19c-0.178,0.041-0.253,0.142-0.395,0.179
	c0.09-0.134,0.106-0.088,0.072-0.251c-0.115,0.031-0.16,0.085-0.245,0.149l-0.183,0.14c-0.005,0.004-0.015,0.014-0.019,0.017
	c-0.004,0.003-0.013,0.011-0.019,0.016c-0.085-0.057-0.037-0.043-0.144-0.072l-0.13,0.086c-0.097,0.087,0.019,0.074-0.272,0.302
	c-0.512,0.401-0.807,0.931-0.924,1.051c-0.196,0.2-0.123,0.3-0.362,0.32c-0.008,0.357-0.073-0.05-0.181,0.394
	c-0.032,0.13-0.017,0.089-0.128,0.159c-0.228,0.145,0.011-0.027-0.237,0.338l-0.759,1.251c-0.144,0.258-0.203,0.56-0.203,0.946
	c0.186,0.077-0.016-0.053,0.129,0.02c0.094,0.047,0.004,0.037,0.122,0.124c0.079-0.055,0.045-0.006,0.072-0.108h0.072
	c0.016,0.188-0.034,0.065,0.072,0.108c0.004-0.177,0.089-0.388,0.251-0.431c-0.013,0.155-0.071,0.293-0.108,0.431
	c-0.04,0.151-0.124,0.282-0.072,0.395c0.146-0.098,0.124-0.194,0.251-0.287C58.764,13.786,58.79,13.735,58.656,13.935L58.656,13.935
	z M116.784,15.227c0,0.17-0.04,0.259-0.072,0.395c-0.057,0.028,0.066,0.037-0.108,0l-0.144,0.251
	c-0.043-0.182,0.083-0.327,0.258-0.568L116.784,15.227L116.784,15.227z M116.101,15.335l-0.02,0.077L116.101,15.335z
	 M115.886,15.371v-0.036l0.042,0.03L115.886,15.371z M116.101,15.335v-0.036l0.042,0.03L116.101,15.335z M116.784,15.227
	l0.042-0.006l-0.042-0.03V15.227z M116.676,14.545l0.011,0.011C116.686,14.555,116.672,14.549,116.676,14.545z M116.712,14.473
	l0.011,0.011C116.722,14.483,116.708,14.477,116.712,14.473z M114.234,13.504l-0.065,0.079
	C114.187,13.482,114.149,13.536,114.234,13.504z M114.276,13.498l-0.042-0.03v0.036L114.276,13.498z M118.651,12.247l0.682-0.718
	L118.651,12.247z M116.604,10.524l-0.718,4.847c-0.004,0.158-0.024,0.112-0.036,0.251c0.147-0.098,0.029-0.089,0.18-0.144
	c0,0.6-0.315,0.467,0.323,0.467l0.036,0.108c0.005,0.003,0.015-0.001,0.016,0.006c0.001,0.006,0.013,0.005,0.015,0.006l0.021,0.017
	c0.045,0.069-0.055,0.108,0.2,0.114c0.169-0.724,0.188-0.184,0.419-0.658c0.12-0.247,0.228-0.494,0.371-0.706l0.333-0.457
	c0.546-0.643,1.082-1.234,1.688-1.831c0.186-0.183,0.009-0.16,0.195-0.343l0.412-0.378c0.128-0.1,0.375-0.315,0.388-0.473
	c-0.204,0.048-0.283,0.055-0.481,0.201c-0.082,0.061-0.131,0.085-0.216,0.143c-0.113,0.077-0.115,0.094-0.236,0.158
	c0.029-0.123,0.09-0.221,0.144-0.323c-0.224,0.06-0.43,0.352-0.646,0.467c0.057-0.213,0.323-0.289,0.43-0.467
	c0.316-0.522,0.999-0.716,0.624-1.236l-0.083-0.166c-0.06-0.094-0.038-0.102-0.002-0.177c-0.151,0.013-0.118,0.041-0.251,0.072
	c0.012-0.147,0.036-0.195,0.036-0.395c-0.242,0.056-0.469,0.265-0.691,0.35c-0.223,0.086-0.464,0.389-0.638,0.404
	c0.089-0.132,0.279-0.255,0.402-0.352l0.446-0.38c0.068-0.051,0.074-0.07,0.131-0.12c0.052-0.044,0.117-0.082,0.17-0.117
	c-0.004-0.162-0.036-0.143-0.036-0.323l-0.444,0.202c-0.273,0.153-0.019,0.157-0.49,0.157c0.114-0.17,0.227-0.155,0.323-0.287
	c-0.103,0.024-0.273,0.098-0.359,0.144c0.032-0.119,0.067-0.123,0.152-0.207c0.074-0.072,0.117-0.108,0.171-0.188
	c-0.141-0.065-0.251,0.096-0.366,0.172c-0.244,0.162-0.898,0.741-1.142,0.761l0.323-0.251c-0.02-0.085-0.033-0.106-0.036-0.215
	c0.185-0.124,0.384-0.353,0.569-0.508c0.119-0.1,0.113-0.101,0.113-0.282c-0.267,0.071-0.475,0.338-0.718,0.467
	c0.032-0.137,0.076-0.15,0.108-0.287c-0.195,0.045-0.099,0.05-0.287,0l-1.122,0.888c-0.074,0.066-0.126,0.127-0.197,0.198
	l-1.347,1.49c-0.059,0.065-0.046,0.066-0.092,0.123c-0.04,0.051-0.064,0.057-0.098,0.117l-0.124,0.271
	c-0.08,0.142-0.082,0.205-0.215,0.144v0.179c-0.066-0.032-0.045-0.028-0.144-0.036v0.323c-0.115,0.077-0.025,0.059-0.179,0.072
	c-0.005,0.222-0.106,0.327-0.13,0.552c-0.022,0.2,0.124,0.275-0.013,0.561c0.094,0.063,0.101,0.083,0.215,0.144l0.11-0.141
	c0.004-0.005,0.014-0.015,0.017-0.019c0.003-0.004,0.011-0.013,0.017-0.019c-0.015,0.175-0.165,0.439,0.072,0.503
	c0.027-0.101,0.071-0.162,0.144-0.215c0,0.217-0.072,0.357-0.072,0.574c0.14-0.012,0.109,0.022,0.144-0.108
	c0.005,0.008,0.012,0.013,0.014,0.025c0.003,0.016,0.023,0.04,0.027,0.044c0.033,0.027-0.019,0.062,0.038,0.009
	c0.064-0.059,0.126-0.43,0.15-0.531c0.052-0.214,0.151-0.492,0.381-0.553c-0.05,0.075-0.114,0.143-0.17,0.224
	c-0.052,0.076-0.108,0.206-0.117,0.314c0.144-0.039,0.104-0.01,0.108-0.179c0.133,0.036,0.046,0.036,0.179,0.072
	c-0.124,0.185-0.149,0.201-0.188,0.387c-0.045,0.213-0.195,0.403-0.175,0.62c0.015,0.16-0.026,0.068,0.075,0.142
	c0.092-0.067,0.179-0.388,0.179-0.539l0.036,0.61c0.131-0.047,0.08-0.104,0.281-0.258c0.156-0.12,0.103-0.192,0.329-0.245
	c-0.062,0.232-0.284,0.472-0.395,0.682c0.096-0.022,0.212-0.052,0.268-0.127c0.037-0.049,0.076-0.236,0.091-0.304
	c0.153,0.041,0.051,0.102-0.004,0.427c-0.036,0.211-0.016,0.361,0.148,0.47l0.18-0.287L116.604,10.524L116.604,10.524z"/>
<path style="fill-rule:evenodd;clip-rule:evenodd;fill:#94A3B8;" d="M119.656,11.529c0.183-0.088,0.123,0.023,0.21-0.184
	c0.079-0.188,0.086-0.075,0.185-0.21c-0.092-0.038-0.028-0.056-0.118,0.022c-0.051,0.044-0.064,0.075-0.098,0.121
	C119.757,11.386,119.69,11.4,119.656,11.529L119.656,11.529z M78.116,38.6c0.032,0.138,0.045,0.179,0.179,0.215
	C78.264,38.698,78.205,38.66,78.116,38.6z M100.304,38.098c0-0.146,0.012-0.116-0.036-0.215c-0.057,0.042-0.073,0.003-0.061,0.096
	C100.217,38.045,100.265,38.069,100.304,38.098L100.304,38.098z M84.219,36.769l0.11-0.179l-0.145-0.001
	C84.192,36.686,84.2,36.688,84.219,36.769z M83.178,20.218c0.008-0.097,0.017-0.098,0.036-0.179c-0.064,0.026-0.06-0.071-0.091,0.09
	C83.108,20.21,83.121,20.177,83.178,20.218L83.178,20.218z M93.446,18.207h0.144v-0.072h-0.144V18.207z M58.297,13.504h0.108v-0.072
	h-0.108V13.504z M119.728,12.283c0.125-0.034,0.081-0.014,0.144-0.108C119.703,12.194,119.803,12.181,119.728,12.283z
	 M120.087,11.996c0.126-0.033,0.081-0.014,0.144-0.108C120.062,11.907,120.163,11.894,120.087,11.996z M66.017,38.959
	c0.024-0.027,0.024-0.01,0.047-0.061c0.034-0.073,0.009-0.017,0.025-0.083h-0.072V38.959z M112.655,19.464h0.072V19.32
	c-0.024,0.027-0.024,0.01-0.047,0.06C112.642,19.462,112.672,19.399,112.655,19.464L112.655,19.464z M118.615,37.81l0.179,0.108
	C118.759,37.82,118.788,37.825,118.615,37.81z M58.656,13.935c-0.07,0.019-0.056,0.007-0.108,0.036l0.065,0.079
	C58.648,13.994,58.64,14.003,58.656,13.935z M112.978,18.459h0.036c0-0.092,0.009-0.087,0.036-0.144
	C112.961,18.351,112.978,18.243,112.978,18.459L112.978,18.459z M99.155,16.376v-0.108h-0.072
	C99.107,16.367,99.069,16.324,99.155,16.376z M57.005,28.188h0.072c-0.025-0.105,0.005-0.052-0.072-0.108V28.188z M51.547,38.385
	h0.036v-0.144h-0.036V38.385z M83.645,23.198c0.079-0.055,0.045-0.006,0.072-0.108C83.657,23.131,83.648,23.098,83.645,23.198z
	 M119.01,37.882l0.1,0.115C119.088,37.882,119.118,37.911,119.01,37.882z M83.573,20.002c0.008,0.041,0.079,0.078,0.048,0.007
	C83.609,19.98,83.556,19.909,83.573,20.002z M39.915,20.541c0.037,0.037,0.13-0.052,0.042-0.019
	C39.956,20.522,39.855,20.481,39.915,20.541z M111.757,36.195c-0.018,0.1,0.086-0.017,0.036-0.014
	C111.726,36.185,111.771,36.12,111.757,36.195z M61.385,8.226c-0.014,0.077,0.052,0.024,0.048-0.007c0,0-0.002-0.006-0.003-0.006
	c-0.001,0-0.009-0.001-0.01-0.001C61.353,8.216,61.399,8.152,61.385,8.226z M83.896,21.187c0,0.089,0.057,0.009,0.022,0
	C83.918,21.187,83.896,21.085,83.896,21.187z M117.861,38.564c0,0.089,0.057,0.009,0.022,0
	C117.883,38.564,117.861,38.462,117.861,38.564z M50.758,18.315c0,0.089,0.057,0.009,0.022,0
	C50.779,18.315,50.758,18.213,50.758,18.315z M64.329,38.421c-0.062,0.062,0.044,0.023,0.01-0.001
	C64.339,38.42,64.331,38.418,64.329,38.421z M100.304,38.098v0.036l0.042-0.03L100.304,38.098z M115.85,15.622h-0.036l0.03,0.042
	L115.85,15.622z M80.952,37.631v0.036l0.042-0.03L80.952,37.631z M57.723,37.99l0.001,0.016c0.033-0.003-0.05,0.069,0.011-0.004
	L57.723,37.99L57.723,37.99z M83.43,19.679l0.011-0.011C83.44,19.669,83.426,19.676,83.43,19.679z"/>
</svg>
